<svg xmlns="http://www.w3.org/2000/svg" width="59" height="60" viewBox="0 0 59 60">
  <defs>
    <style>
      .cls-1 {
        fill: #183a5b;
        fill-rule: evenodd;
      }
    </style>
  </defs>
  <path id="_1" data-name="1" class="cls-1" d="M356.447,7287.39l-2.221-.55a25.071,25.071,0,0,0-2.147-5.19l1.21-2.03c1.046-2.04.349-3.2-.16-3.71l-5.327-5.36a3.034,3.034,0,0,0-3.743-.13l-1.986,1.2a24.683,24.683,0,0,0-5.143-2.14l-0.576-2.31c-0.695-2.19-2-2.51-2.724-2.51h-7.771a0.885,0.885,0,0,0,0,1.77h7.771a1.39,1.39,0,0,1,1.027,1.22l0.684,2.76a0.9,0.9,0,0,0,.628.64,23.417,23.417,0,0,1,5.677,2.36,0.894,0.894,0,0,0,.895,0l2.423-1.47a2.248,2.248,0,0,1,1.052-.34,0.691,0.691,0,0,1,.537.21l5.327,5.35a1.408,1.408,0,0,1-.132,1.6l-1.447,2.42a0.885,0.885,0,0,0-.007.9,23.579,23.579,0,0,1,2.366,5.72,0.888,0.888,0,0,0,.638.63l2.717,0.68c0.2,0.06,1.218.35,1.218,1.04v7.57a1.384,1.384,0,0,1-1.215,1.03l-2.719.69a0.859,0.859,0,0,0-.639.62,23.609,23.609,0,0,1-2.366,5.73,0.887,0.887,0,0,0,.006.9l1.445,2.42c0.107,0.18.617,1.11,0.135,1.59l-5.326,5.36a1.408,1.408,0,0,1-1.587-.14l-2.426-1.46a0.894,0.894,0,0,0-.895-0.01,23.233,23.233,0,0,1-5.677,2.37,0.883,0.883,0,0,0-.628.64l-0.668,2.7c-0.27.85-.621,1.27-1.043,1.27h-7.458a0.89,0.89,0,0,0,0,1.78h7.458c0.719,0,2.03-.33,2.74-2.57l0.56-2.25a25.455,25.455,0,0,0,5.144-2.14l2.034,1.22c1.517,0.79,2.824.71,3.693-.16l5.328-5.35a3,3,0,0,0,.133-3.76l-1.183-1.98a25.419,25.419,0,0,0,2.147-5.19l2.274-.57c2.174-.7,2.5-2.02,2.5-2.74v-7.57A2.991,2.991,0,0,0,356.447,7287.39Zm-26.687,6.1c-0.022.03-.032,0.07-0.05,0.1a0.792,0.792,0,0,0-.067.15c-0.007.02-.022,0.04-0.027,0.06a0.965,0.965,0,0,0-.006.12,0.875,0.875,0,0,0-.018.1c0,0.02.01,0.04,0.012,0.06s0,0.04,0,.06a0.956,0.956,0,0,0,.038.11,1.016,1.016,0,0,0,.056.16c0.01,0.02.014,0.04,0.026,0.06,0,0,0,0,0,.01l6.488,10.35a12.091,12.091,0,0,1-5.647,1.4,0.885,0.885,0,0,0,0,1.77,13.853,13.853,0,0,0,7.291-2.07c0.022-.01.049-0.01,0.071-0.02s0.041-.05.066-0.07a14.086,14.086,0,0,0,6.6-11.93c0-.03,0-0.06,0-0.1,0-.01,0-0.01,0-0.02s-0.006-.02-0.007-0.03a14.093,14.093,0,0,0-5.606-11.1,0.438,0.438,0,0,0-.073-0.08,0.331,0.331,0,0,0-.093-0.04,13.894,13.894,0,0,0-8.245-2.72,0.885,0.885,0,0,0,0,1.77,12.142,12.142,0,0,1,6.549,1.93l-7.352,9.96A0.047,0.047,0,0,1,329.76,7293.49Zm7.955,10.41-5.657-9.03,10.729-.16A12.3,12.3,0,0,1,337.715,7303.9Zm5.063-10.97-10.53.16,6.289-8.52A12.3,12.3,0,0,1,342.778,7292.93Zm-20-28.92a8.564,8.564,0,0,0-7.425,4.32,11.272,11.272,0,0,0-8.957,14.8,12.3,12.3,0,0,0,.061,21.61,11.24,11.24,0,0,0,8.9,14.94,8.562,8.562,0,0,0,16-4.29v-42.77A8.6,8.6,0,0,0,322.783,7264.01Zm6.809,51.38a6.809,6.809,0,1,1-13.618,0,0.883,0.883,0,1,0-1.766,0,8.581,8.581,0,0,0,.324,2.31,9.44,9.44,0,0,1-6.975-9.15,9.546,9.546,0,0,1,3.941-7.72,0.885,0.885,0,1,0-1.03-1.44,11.249,11.249,0,0,0-3.272,3.73,10.52,10.52,0,0,1-.082-18.36,11.226,11.226,0,0,0,3,3.59,0.876,0.876,0,0,0,1.238-.15,0.883,0.883,0,0,0-.153-1.24,9.51,9.51,0,0,1,3.332-16.65,8.581,8.581,0,0,0-.324,2.31,0.883,0.883,0,1,0,1.766,0,6.809,6.809,0,1,1,13.618,0v42.77Zm-17.931-24.38a0.887,0.887,0,1,0-1.249,1.26,2.2,2.2,0,0,1,.645,1.56,2.2,2.2,0,0,1-3.758,1.57,0.874,0.874,0,0,0-1.249,0,0.884,0.884,0,0,0,0,1.25,3.949,3.949,0,0,0,5.611,0A4.007,4.007,0,0,0,311.661,7291.01Zm8.2-20.7a0.887,0.887,0,1,0,1.248,1.26,2.18,2.18,0,0,1,3.111,0,2.214,2.214,0,0,1,0,3.12,0.9,0.9,0,0,0,0,1.26,0.9,0.9,0,0,0,1.248,0,4.007,4.007,0,0,0,0-5.64A3.962,3.962,0,0,0,319.86,7270.31Zm2.694,37.41a0.883,0.883,0,0,0-1.766,0,3.562,3.562,0,1,1-7.124,0,0.883,0.883,0,0,0-1.766,0A5.328,5.328,0,1,0,322.554,7307.72Zm-0.136-7.97a0.874,0.874,0,0,0,1.249,0,0.884,0.884,0,0,0,0-1.25,4.771,4.771,0,0,0-6.757,0,4.823,4.823,0,0,0,0,6.79,0.887,0.887,0,0,0,1.249-1.26,3.041,3.041,0,0,1,0-4.28A3,3,0,0,1,322.418,7299.75Zm-7.684-14.85a0.85,0.85,0,0,0,.624-0.26,0.884,0.884,0,0,0,0-1.25,3.607,3.607,0,0,1,0-5.07,3.565,3.565,0,0,1,5.038,0,0.873,0.873,0,0,0,1.248,0,0.884,0.884,0,0,0,0-1.25,5.31,5.31,0,0,0-7.534,0,5.377,5.377,0,0,0,0,7.57A0.85,0.85,0,0,0,314.734,7284.9Zm11.594,3.39a5.681,5.681,0,0,0-5.663-5.69,0.885,0.885,0,0,0,0,1.77,3.92,3.92,0,0,1,0,7.84,0.885,0.885,0,0,0,0,1.77A5.681,5.681,0,0,0,326.328,7288.29Zm-2.136,23.58a0.9,0.9,0,0,0,0,1.26,2.286,2.286,0,0,1-3.225,3.24,0.874,0.874,0,0,0-1.249,0,0.886,0.886,0,0,0,0,1.25,4.034,4.034,0,0,0,5.722,0,4.084,4.084,0,0,0,0-5.75A0.891,0.891,0,0,0,324.192,7311.87Z" transform="translate(-300 -7264)"/>
</svg>
