<svg xmlns="http://www.w3.org/2000/svg" width="66" height="58" viewBox="0 0 66 58">
  <defs>
    <style>
      .cls-1 {
        fill: #183a5b;
        fill-rule: evenodd;
      }
    </style>
  </defs>
  <path id="_11" data-name="11" class="cls-1" d="M332.064,8676.34a7.928,7.928,0,1,0,1.927,14.53A7.915,7.915,0,0,0,332.064,8676.34Zm4.2,9.33a6.407,6.407,0,0,1-3.022,3.91,6.519,6.519,0,0,1-8.861-2.35,6.467,6.467,0,0,1,5.608-9.68,6.943,6.943,0,0,1,1.687.22,6.436,6.436,0,0,1,3.94,3.01A6.36,6.36,0,0,1,336.265,8685.67Zm11.345-3.31-0.854-3.98-3.663.07a13.85,13.85,0,0,0-1.717-2.95l1.9-3.11-3.043-2.73-2.922,2.2a14.447,14.447,0,0,0-3.134-1.38l-0.308-3.63-4.073-.42-1.057,3.48a14.324,14.324,0,0,0-3.358.71l-2.394-2.75-3.548,2.03,1.206,3.44a14.3,14.3,0,0,0-2.294,2.53l-3.565-.83-1.669,3.72,3.01,2.08a14.05,14.05,0,0,0-.356,3.39l-3.379,1.41,0.855,3.99,3.66-.08a13.939,13.939,0,0,0,1.716,2.95l-1.9,3.11,3.046,2.73,2.917-2.2a14.546,14.546,0,0,0,3.133,1.38l0.307,3.63,4.073,0.43,1.06-3.49a14.746,14.746,0,0,0,3.356-.7l2.392,2.75,3.547-2.04-1.2-3.43a14.364,14.364,0,0,0,2.294-2.54l3.565,0.83,1.665-3.72-3-2.08a13.948,13.948,0,0,0,.356-3.39Zm-4.893.96a12.547,12.547,0,0,1-.418,3.97l-0.138.5,2.848,1.97-0.658,1.47-3.376-.79-0.287.44a12.691,12.691,0,0,1-2.68,2.97l-0.41.33,1.139,3.25-1.405.8-2.263-2.6-0.491.19a12.828,12.828,0,0,1-3.923.82l-0.525.03-1,3.29-1.612-.16-0.291-3.43-0.508-.14a12.878,12.878,0,0,1-3.665-1.62l-0.441-.28-2.758,2.08-1.207-1.08,1.8-2.94-0.329-.41a12.792,12.792,0,0,1-2.008-3.45l-0.189-.49-3.463.07-0.339-1.58,3.2-1.33-0.028-.52a12.543,12.543,0,0,1,.417-3.96l0.136-.51-2.846-1.97,0.661-1.47,3.374,0.79,0.286-.44a12.515,12.515,0,0,1,2.68-2.96l0.41-.33-1.141-3.25,1.4-.81,2.267,2.61,0.491-.19a12.885,12.885,0,0,1,3.92-.83l0.528-.02,1-3.31,1.611,0.17,0.291,3.44,0.51,0.13a12.757,12.757,0,0,1,3.661,1.62l0.441,0.28,2.765-2.08,1.2,1.08-1.8,2.95,0.333,0.4a12.4,12.4,0,0,1,2,3.45l0.187,0.49,3.47-.07,0.338,1.58-3.2,1.33Zm15.821-3.76h0a4.658,4.658,0,0,0-1.548.28l-9.882-17a4.322,4.322,0,0,0,1.022-1.19,4.454,4.454,0,1,0-8.257-2.96l-19.751.01a4.361,4.361,0,0,0-.532-1.48,4.481,4.481,0,0,0-6.095-1.62,4.384,4.384,0,0,0-.609,7.24l-9.877,17.01a4.438,4.438,0,1,0-1.549,8.59h0a4.424,4.424,0,0,0,1.549-.28l9.882,17a4.427,4.427,0,0,0,2.834,7.84,4.622,4.622,0,0,0,1.163-.15,4.44,4.44,0,0,0,3.24-3.54h19.748a4.386,4.386,0,0,0,.532,1.47,4.474,4.474,0,0,0,3.871,2.22,4.431,4.431,0,0,0,3.856-6.65,4.308,4.308,0,0,0-1.023-1.19l9.877-17.01a4.477,4.477,0,0,0,1.548.28h0a4.436,4.436,0,0,0,3.155-1.3A4.368,4.368,0,0,0,363,8684,4.454,4.454,0,0,0,358.538,8679.56Zm-12.727,24.86c-0.129-.04-0.251-0.1-0.386-0.14a4.456,4.456,0,0,0-2.7.13l-2.1-3.62-1.295.75,2.1,3.62a4.388,4.388,0,0,0-1.467,2.26,3.769,3.769,0,0,0-.088.4H320.13c-0.024-.13-0.052-0.27-0.088-0.4a4.39,4.39,0,0,0-1.468-2.26l2.1-3.62-1.3-.74-2.1,3.61a4.456,4.456,0,0,0-2.7-.13c-0.135.04-.257,0.1-0.386,0.15l-9.885-17.01a4.468,4.468,0,0,0,1.547-2.67h4.2v-1.49h-4.2a4.436,4.436,0,0,0-1.548-2.67l9.881-17.01c0.129,0.04.251,0.11,0.386,0.14a4.206,4.206,0,0,0,1.161.16,4.532,4.532,0,0,0,1.542-.29l2.1,3.62,1.3-.75-2.1-3.62a4.355,4.355,0,0,0,1.467-2.25c0.037-.14.065-0.27,0.088-0.41h19.746a4.45,4.45,0,0,0,1.552,2.67l-2.1,3.61,1.3,0.74,2.1-3.61a4.506,4.506,0,0,0,1.54.28,4.614,4.614,0,0,0,1.162-.15c0.135-.04.257-0.1,0.386-0.15l9.886,17.01a4.465,4.465,0,0,0-1.548,2.67l-4.2.01v1.48h4.2a4.362,4.362,0,0,0,1.24,2.39c0.1,0.1.2,0.19,0.308,0.28Z" transform="translate(-297 -8655)"/>
</svg>
