<svg xmlns="http://www.w3.org/2000/svg" width="60" height="52" viewBox="0 0 60 52">
  <defs>
    <style>
      .cls-1 {
        fill: #183a5b;
        fill-rule: evenodd;
      }
    </style>
  </defs>
  <path id="_13" data-name="13" class="cls-1" d="M322.049,8978.25a0.87,0.87,0,0,1-.86-0.76,0.886,0.886,0,0,1,.749-0.99l7.168-.94a0.859,0.859,0,0,1,.975.75,0.874,0.874,0,0,1-.749.99l-7.168.95h-0.115Zm17.285,7.28a0.855,0.855,0,0,1-.623-0.27l-6.79-7.05a0.882,0.882,0,0,1,.017-1.24,0.868,0.868,0,0,1,1.229.01l6.791,7.06A0.879,0.879,0,0,1,339.334,8985.53Zm0.8-.44a0.875,0.875,0,0,1-.826-0.61l-1.7-5.25a0.871,0.871,0,0,1,.3-0.97l3.078-2.35a0.838,0.838,0,0,1,.586-0.18l7.672,0.56a0.877,0.877,0,0,1-.125,1.75l-7.346-.53-2.322,1.77,1.508,4.65a0.877,0.877,0,0,1-.556,1.11A0.852,0.852,0,0,1,340.138,8985.09Zm12.061-8.59a0.856,0.856,0,0,1-.459-0.13,0.893,0.893,0,0,1-.277-1.22l3.921-6.33a0.855,0.855,0,0,1,1.2-.28,0.882,0.882,0,0,1,.277,1.21l-3.922,6.34A0.878,0.878,0,0,1,352.2,8976.5Zm4.62-9.99a0.87,0.87,0,0,1-.855-0.73l-1.42-8.32a0.87,0.87,0,1,1,1.713-.3l1.42,8.32a0.87,0.87,0,0,1-.709,1.01A0.762,0.762,0,0,1,356.819,8966.51Zm-3.085-11.75a0.832,0.832,0,0,1-.643-0.29l-8.561-9.53a0.883,0.883,0,0,1,.059-1.24,0.859,0.859,0,0,1,1.228.06l8.561,9.53a0.9,0.9,0,0,1-.059,1.25A0.868,0.868,0,0,1,353.734,8954.76Zm-11.814-11.4a1.056,1.056,0,0,1-.173-0.02l-10.855-2.22a0.877,0.877,0,0,1,.345-1.72l10.855,2.22A0.88,0.88,0,0,1,341.92,8943.36Zm-28.3,1.71a0.865,0.865,0,0,1-.837-0.64,0.878,0.878,0,0,1,.606-1.08l13.611-3.8a0.875,0.875,0,0,1,1.071.61,0.89,0.89,0,0,1-.607,1.09l-13.612,3.79A0.923,0.923,0,0,1,313.623,8945.07Zm-9.581,10.34a0.871,0.871,0,0,1-.686-1.41l6.423-8.36a0.874,0.874,0,0,1,1.22-.16,0.893,0.893,0,0,1,.153,1.24l-6.422,8.35A0.845,0.845,0,0,1,304.042,8955.41Zm0.368,10.33a0.866,0.866,0,0,1-.855-0.72l-1.226-6.8a0.869,0.869,0,1,1,1.71-.31l1.227,6.8a0.881,0.881,0,0,1-.7,1.02A0.818,0.818,0,0,1,304.41,8965.74Zm8.7,4.45a1.049,1.049,0,0,1-.247-0.03l-6.426-1.93a0.876,0.876,0,0,1,.494-1.68l6.425,1.92A0.879,0.879,0,0,1,313.113,8970.19Zm5.821,6.65a0.853,0.853,0,0,1-.729-0.39l-2.858-4.43a0.89,0.89,0,0,1,.253-1.22,0.866,0.866,0,0,1,1.2.26l2.858,4.43a0.878,0.878,0,0,1-.253,1.21A0.829,0.829,0,0,1,318.934,8976.84Zm14.039-27.19a0.856,0.856,0,0,1-.767-0.46,0.883,0.883,0,0,1,.355-1.19l9.143-4.96a0.863,0.863,0,0,1,1.177.36,0.883,0.883,0,0,1-.355,1.19l-9.143,4.96A0.859,0.859,0,0,1,332.973,8949.65Zm-2.349-1.1a0.87,0.87,0,0,1-.853-0.72l-1.118-5.84a0.87,0.87,0,1,1,1.708-.33l1.118,5.84a0.877,0.877,0,0,1-.689,1.03A0.963,0.963,0,0,1,330.624,8948.55Zm-15.988,8.43H304.8a0.875,0.875,0,0,1,0-1.75h9.835A0.875,0.875,0,0,1,314.636,8956.98Zm-8.372,9.38a0.86,0.86,0,0,1-.657-0.3,0.886,0.886,0,0,1,.085-1.24l8.8-7.75a0.877,0.877,0,0,1,1.143,1.33l-8.8,7.74A0.84,0.84,0,0,1,306.264,8966.36Zm37.916-8.82a0.879,0.879,0,0,1-.1-1.75l8.936-1.06a0.88,0.88,0,0,1,.965.77,0.869,0.869,0,0,1-.762.97l-8.937,1.06C344.248,8957.53,344.214,8957.54,344.18,8957.54Zm-1.724-1.75h-0.1a0.884,0.884,0,0,1-.762-0.98l1.165-10.05a0.87,0.87,0,1,1,1.727.21l-1.165,10.05A0.874,0.874,0,0,1,342.456,8955.79Zm-24.164.58a0.879,0.879,0,0,1-.351-1.68l11.148-4.97a0.866,0.866,0,0,1,1.146.45,0.881,0.881,0,0,1-.445,1.16l-11.148,4.97A1.079,1.079,0,0,1,318.292,8956.37Zm-2.26,12.68a0.832,0.832,0,0,1-.451-0.13,0.875,0.875,0,0,1-.29-1.2l4.247-7.04-2.072-2.41a0.885,0.885,0,0,1,.085-1.24,0.859,0.859,0,0,1,1.227.09l2.49,2.89a0.882,0.882,0,0,1,.086,1.03l-4.578,7.59A0.871,0.871,0,0,1,316.032,8969.05Zm0.911,1.36a0.871,0.871,0,0,1-.854-0.73,0.885,0.885,0,0,1,.7-1.02l15.06-2.71a0.878,0.878,0,0,1,.306,1.73l-15.06,2.71A0.833,0.833,0,0,1,316.943,8970.41Zm26.049-2.42h-0.024l-10.986-.3a0.868,0.868,0,0,1-.846-0.9,0.89,0.89,0,0,1,.892-0.85l10.986,0.29A0.88,0.88,0,0,1,342.992,8967.99Zm7.135,8.5a0.87,0.87,0,0,1-.742-0.42l-4.12-6.78a0.887,0.887,0,0,1,.286-1.21,0.872,0.872,0,0,1,1.2.29l4.12,6.78a0.883,0.883,0,0,1-.286,1.21A0.842,0.842,0,0,1,350.127,8976.49Zm-7.069-9.01a0.863,0.863,0,0,1-.224-0.03l-22.445-6.01a0.887,0.887,0,0,1,.053-1.72l19.644-3.93a0.875,0.875,0,0,1,1.023.69,0.887,0.887,0,0,1-.684,1.04l-15.959,3.19,18.814,5.04a0.887,0.887,0,0,1,.617,1.08A0.872,0.872,0,0,1,343.058,8967.48Zm1.388-1.41a0.874,0.874,0,0,1-.839-0.65l-1.708-6.38a0.883,0.883,0,0,1,.613-1.08,0.866,0.866,0,0,1,1.067.62l1.707,6.38a0.883,0.883,0,0,1-.612,1.08A0.9,0.9,0,0,1,344.446,8966.07Zm-13.1,9c-0.026,0-.052-0.01-0.079-0.01a0.873,0.873,0,0,1-.788-0.95l0.657-7.37a0.87,0.87,0,1,1,1.732.16l-0.657,7.37A0.878,0.878,0,0,1,331.349,8975.07Zm10.166,2.42a0.806,0.806,0,0,1-.3-0.06,0.877,0.877,0,0,1-.517-1.12l2.768-7.63a0.874,0.874,0,0,1,1.116-.53,0.888,0.888,0,0,1,.517,1.13l-2.767,7.63A0.87,0.87,0,0,1,341.515,8977.49Zm-35.844-21.39a2.839,2.839,0,1,0-2.839,2.87A2.86,2.86,0,0,0,305.671,8956.1Zm-3.939,0a1.1,1.1,0,1,1,1.1,1.11A1.107,1.107,0,0,1,301.732,8956.1Zm12.809-11.47a2.839,2.839,0,1,0-2.839,2.87A2.86,2.86,0,0,0,314.541,8944.63Zm-2.839,1.11a1.11,1.11,0,1,1,1.1-1.11A1.107,1.107,0,0,1,311.7,8945.74Zm20.27-5.87a2.839,2.839,0,1,0-2.838,2.87A2.859,2.859,0,0,0,331.972,8939.87Zm-3.938,0a1.1,1.1,0,1,1,1.1,1.11A1.107,1.107,0,0,1,328.034,8939.87Zm15.816,5.87a2.865,2.865,0,1,0-2.838-2.87A2.853,2.853,0,0,0,343.85,8945.74Zm0-3.98a1.115,1.115,0,1,1-1.1,1.11A1.107,1.107,0,0,1,343.85,8941.76Zm11.221,16.45a2.865,2.865,0,1,0-2.84-2.86A2.85,2.85,0,0,0,355.071,8958.21Zm0-3.98a1.115,1.115,0,1,1-1.1,1.12A1.109,1.109,0,0,1,355.071,8954.23Zm2.087,10.49a2.87,2.87,0,1,0,2.839,2.87A2.859,2.859,0,0,0,357.158,8964.72Zm0,3.98a1.11,1.11,0,1,1,1.1-1.11A1.108,1.108,0,0,1,357.158,8968.7Zm-6,5.74a2.87,2.87,0,1,0,2.838,2.87A2.86,2.86,0,0,0,351.157,8974.44Zm0,3.98a1.11,1.11,0,1,1,1.1-1.11A1.108,1.108,0,0,1,351.157,8978.42Zm-19.985-5.12a2.87,2.87,0,1,0,2.839,2.87A2.859,2.859,0,0,0,331.172,8973.3Zm0,3.98a1.11,1.11,0,1,1,1.1-1.11A1.107,1.107,0,0,1,331.172,8977.28Zm9.477,5.98a2.87,2.87,0,1,0,2.839,2.87A2.86,2.86,0,0,0,340.649,8983.26Zm0,3.98a1.11,1.11,0,1,1,1.1-1.11A1.108,1.108,0,0,1,340.649,8987.24Zm-20.558-12.53a2.865,2.865,0,1,0,2.84,2.86A2.851,2.851,0,0,0,320.091,8974.71Zm0,3.98a1.115,1.115,0,1,1,1.1-1.12A1.11,1.11,0,0,1,320.091,8978.69ZM315,8967a2.87,2.87,0,1,0,2.839,2.87A2.86,2.86,0,0,0,315,8967Zm0,3.98a1.11,1.11,0,1,1,1.1-1.11A1.107,1.107,0,0,1,315,8970.98Zm-10.2-7.03a2.865,2.865,0,1,0,2.839,2.87A2.853,2.853,0,0,0,304.8,8963.95Zm0,3.98a1.115,1.115,0,1,1,1.1-1.11A1.108,1.108,0,0,1,304.8,8967.93Zm37.424-8.17a2.87,2.87,0,1,0-2.839-2.87A2.859,2.859,0,0,0,342.225,8959.76Zm0-3.98a1.11,1.11,0,1,1-1.1,1.11A1.108,1.108,0,0,1,342.225,8955.78Zm-11.053-9.07a2.87,2.87,0,1,0,2.839,2.87A2.859,2.859,0,0,0,331.172,8946.71Zm0,3.98a1.11,1.11,0,1,1,1.1-1.11A1.107,1.107,0,0,1,331.172,8950.69Zm-14.6,8.64a2.865,2.865,0,1,0-2.839-2.87A2.86,2.86,0,0,0,316.573,8959.33Zm0-3.98a1.115,1.115,0,1,1-1.1,1.11A1.108,1.108,0,0,1,316.573,8955.35Zm28.388,8.89a2.87,2.87,0,1,0,2.839,2.87A2.859,2.859,0,0,0,344.961,8964.24Zm0,3.98a1.11,1.11,0,1,1,1.1-1.11A1.107,1.107,0,0,1,344.961,8968.22Z" transform="translate(-300 -8937)"/>
</svg>
