<svg xmlns="http://www.w3.org/2000/svg" width="60" height="54" viewBox="0 0 60 54">
  <defs>
    <style>
      .cls-1 {
        fill: #183a5b;
        fill-rule: evenodd;
      }
    </style>
  </defs>
  <path id="_14" data-name="14" class="cls-1" d="M321.853,9102.62a3.157,3.157,0,0,0-.869,6.19v19.29a0.87,0.87,0,1,0,1.739,0v-19.29A3.157,3.157,0,0,0,321.853,9102.62Zm0,4.58a1.415,1.415,0,1,1,1.409-1.42A1.418,1.418,0,0,1,321.853,9107.2Zm0-25.83a3.157,3.157,0,0,0-.869,6.19v12.03a0.87,0.87,0,1,0,1.739,0v-12.03A3.157,3.157,0,0,0,321.853,9081.37Zm0,4.58a1.415,1.415,0,1,1,1.409-1.41A1.409,1.409,0,0,1,321.853,9085.95Zm-6.217,4.1a3.142,3.142,0,0,0-3.01,2.29h-6.978a0.875,0.875,0,0,0,0,1.75h6.978A3.144,3.144,0,1,0,315.636,9090.05Zm0,4.58a1.42,1.42,0,1,1,1.408-1.42A1.418,1.418,0,0,1,315.636,9094.63Zm0,10.28h-3.55a3.165,3.165,0,1,0,0,1.75h3.55A0.875,0.875,0,0,0,315.636,9104.91Zm-6.559,2.29a1.415,1.415,0,1,1,1.408-1.42A1.418,1.418,0,0,1,309.077,9107.2Zm41.835-4.58a3.142,3.142,0,0,0-3.009,2.29h-3.55a0.875,0.875,0,0,0,0,1.75h3.55A3.143,3.143,0,1,0,350.912,9102.62Zm0,4.58a1.415,1.415,0,1,1,1.409-1.42A1.418,1.418,0,0,1,350.912,9107.2Zm-12.777-4.58a3.158,3.158,0,0,0-.869,6.19v19.29a0.87,0.87,0,1,0,1.739,0v-19.29A3.157,3.157,0,0,0,338.135,9102.62Zm0,4.58a1.415,1.415,0,1,1,1.409-1.42A1.418,1.418,0,0,1,338.135,9107.2Zm-0.869-19.64v12.03a0.87,0.87,0,1,0,1.739,0v-12.03A3.147,3.147,0,1,0,337.266,9087.56Zm0.869-4.44a1.415,1.415,0,1,1-1.408,1.42A1.417,1.417,0,0,1,338.135,9083.12Zm16.206,9.22h-6.978a3.155,3.155,0,1,0,0,1.75h6.978A0.875,0.875,0,0,0,354.341,9092.34Zm-9.988,2.29a1.42,1.42,0,1,1,1.408-1.42A1.417,1.417,0,0,1,344.353,9094.63Zm-22.821-19.64a8.556,8.556,0,0,0-7.031,3.79,10.049,10.049,0,0,0-8.938,13.49,11.274,11.274,0,0,0,0,19.45,10.051,10.051,0,0,0,8.939,13.49,8.559,8.559,0,0,0,7.031,3.79,8.285,8.285,0,0,0,6.272-2.88,0.854,0.854,0,0,0,.213-0.57v-47.11a0.9,0.9,0,0,0-.213-0.58A8.309,8.309,0,0,0,321.532,9074.99Zm4.746,50.22a6.548,6.548,0,0,1-4.746,2.04,6.8,6.8,0,0,1-5.8-3.33c-0.018-.03-0.048-0.05-0.07-0.08a0.776,0.776,0,0,0-.119-0.13,0.447,0.447,0,0,0-.136-0.09,0.441,0.441,0,0,0-.147-0.07,1.056,1.056,0,0,0-.175-0.04c-0.036,0-.068-0.02-0.105-0.02a8.337,8.337,0,0,1-7.543-11.78,1.035,1.035,0,0,0,.027-0.12,0.838,0.838,0,0,0,.048-0.21,1.2,1.2,0,0,0-.016-0.13,1.047,1.047,0,0,0-.034-0.2,1.19,1.19,0,0,0-.066-0.12,1.115,1.115,0,0,0-.1-0.16,0.715,0.715,0,0,0-.129-0.11c-0.044-.03-0.079-0.07-0.13-0.1a9.572,9.572,0,0,1,0-17.13,0.813,0.813,0,0,0,.138-0.11c0.041-.03.088-0.06,0.122-0.09a1.135,1.135,0,0,0,.107-0.18,1.235,1.235,0,0,0,.063-0.11,0.958,0.958,0,0,0,.034-0.21,0.823,0.823,0,0,0,.016-0.12,0.85,0.85,0,0,0-.046-0.2,1.011,1.011,0,0,0-.029-0.13,8.337,8.337,0,0,1,7.543-11.78,0.362,0.362,0,0,0,.1-0.02,1.039,1.039,0,0,0,.177-0.03c0.053-.02.1-0.05,0.146-0.07a0.835,0.835,0,0,0,.138-0.1,0.765,0.765,0,0,0,.117-0.13c0.022-.03.053-0.05,0.071-0.08a6.793,6.793,0,0,1,5.8-3.33,6.548,6.548,0,0,1,4.746,2.04v46.43ZM360,9101.99a11.214,11.214,0,0,0-5.571-9.72,10.049,10.049,0,0,0-8.938-13.49,8.561,8.561,0,0,0-7.031-3.79,8.309,8.309,0,0,0-6.272,2.87,0.9,0.9,0,0,0-.214.58v47.11a0.85,0.85,0,0,0,.214.57,8.285,8.285,0,0,0,6.272,2.88,8.561,8.561,0,0,0,7.031-3.79,10.051,10.051,0,0,0,8.939-13.49A11.231,11.231,0,0,0,360,9101.99Zm-7.037,8.57c-0.048.03-.08,0.07-0.122,0.1a0.755,0.755,0,0,0-.14.11,0.671,0.671,0,0,0-.09.14,1.1,1.1,0,0,0-.079.14,0.868,0.868,0,0,0-.03.18,0.964,0.964,0,0,0-.02.15,0.906,0.906,0,0,0,.047.2,0.871,0.871,0,0,0,.03.13,8.339,8.339,0,0,1-7.544,11.78,0.362,0.362,0,0,0-.1.02,1.09,1.09,0,0,0-.18.04,0.746,0.746,0,0,0-.143.06,0.843,0.843,0,0,0-.139.1,0.809,0.809,0,0,0-.117.13c-0.022.03-.053,0.05-0.071,0.08a6.8,6.8,0,0,1-5.8,3.33,6.555,6.555,0,0,1-4.747-2.04v-46.43a6.555,6.555,0,0,1,4.747-2.04,6.794,6.794,0,0,1,5.8,3.33c0.018,0.03.049,0.05,0.071,0.08a0.809,0.809,0,0,0,.117.13,0.9,0.9,0,0,0,.14.1,0.712,0.712,0,0,0,.142.06,0.4,0.4,0,0,0,.183.04,0.342,0.342,0,0,0,.1.02,8.339,8.339,0,0,1,7.544,11.78,0.785,0.785,0,0,0-.032.14,0.755,0.755,0,0,0-.045.19,0.843,0.843,0,0,0,.02.14,0.963,0.963,0,0,0,.03.19,0.631,0.631,0,0,0,.075.13,0.717,0.717,0,0,0,.094.15,0.778,0.778,0,0,0,.133.11c0.044,0.03.078,0.07,0.129,0.1A9.572,9.572,0,0,1,352.96,9110.56Zm-7.737,4.27v-15.24a0.87,0.87,0,0,0-.87-0.87H315.636a0.871,0.871,0,0,0-.87.87v15.24a3.148,3.148,0,1,0,1.739,0v-14.36h26.979v14.36A3.147,3.147,0,1,0,345.223,9114.83Zm-28.179,3.02a1.409,1.409,0,1,1-1.408-1.41A1.418,1.418,0,0,1,317.044,9117.85Zm27.309,1.42a1.415,1.415,0,1,1,1.408-1.42A1.417,1.417,0,0,1,344.353,9119.27Z" transform="translate(-300 -9075)"/>
</svg>
