<svg xmlns="http://www.w3.org/2000/svg" width="60" height="60" viewBox="0 0 60 60">
  <defs>
    <style>
      .cls-1 {
        fill: #183a5b;
        fill-rule: evenodd;
      }
    </style>
  </defs>
  <path id="_15" data-name="15" class="cls-1" d="M342.691,9236.63a11.851,11.851,0,0,0-11.838-11.84c-4.689,0-8.876,2.5-10.432,6.26l-4.228,11.43a0.852,0.852,0,0,0,.1.79,0.861,0.861,0,0,0,.714.38h1.575v3.01a6.292,6.292,0,0,0,6.287,6.28h0.866v2.62a0.87,0.87,0,1,0,1.739,0v-3.48a0.863,0.863,0,0,0-.869-0.87h-1.736a4.553,4.553,0,0,1-4.548-4.55v-3.88a0.871,0.871,0,0,0-.87-0.87h-1.2l3.784-10.23c1.276-3.08,4.817-5.15,8.812-5.15a10.1,10.1,0,0,1,8.761,15.12,0.226,0.226,0,0,0-.016.05,1.232,1.232,0,0,0-.09.33c0,0.02-.01.04-0.01,0.06v13.47a0.87,0.87,0,1,0,1.739,0v-13.28A11.8,11.8,0,0,0,342.691,9236.63Zm-6.849-7.07a2.8,2.8,0,0,0-.87,5.46v20.54a0.87,0.87,0,1,0,1.739,0v-20.54A2.8,2.8,0,0,0,335.842,9229.56Zm0,3.87a1.065,1.065,0,1,1,1.068-1.06A1.068,1.068,0,0,1,335.842,9233.43Zm-5.73,13.98a2.746,2.746,0,0,0,.314-1.26,2.807,2.807,0,1,0-2.808,2.81,2.709,2.709,0,0,0,1.264-.32l3.665,3.67v3.25a0.869,0.869,0,1,0,1.738,0v-3.61a0.86,0.86,0,0,0-.254-0.62Zm-3.561-1.26a1.068,1.068,0,1,1,1.067,1.07A1.07,1.07,0,0,1,326.551,9246.15Zm1.316-7.47a2.775,2.775,0,0,0,.315-1.27,2.833,2.833,0,1,0-1.544,2.5l5.909,5.9v2.88a0.869,0.869,0,1,0,1.738,0v-3.24a0.854,0.854,0,0,0-.254-0.61Zm-3.56-1.27a1.068,1.068,0,1,1,1.835.74,0.018,0.018,0,0,1-.019.01,0.034,0.034,0,0,1-.012.02,1.035,1.035,0,0,1-.736.3A1.07,1.07,0,0,1,324.307,9237.41Zm5.7-3.47v-1.13a2.807,2.807,0,1,0-1.738,0v1.49a0.877,0.877,0,0,0,.254.62l4.028,4.03v2.87a0.869,0.869,0,1,0,1.738,0v-3.23a0.877,0.877,0,0,0-.254-0.62Zm-0.869-4.85a1.07,1.07,0,1,1-1.068,1.07A1.071,1.071,0,0,1,329.134,9229.09Zm15.482-7.5H315.373a2.8,2.8,0,0,0-2.8,2.8v29.24a2.805,2.805,0,0,0,2.8,2.8h29.243a2.806,2.806,0,0,0,2.8-2.8v-29.24A2.8,2.8,0,0,0,344.616,9221.59Zm1.061,32.04a1.065,1.065,0,0,1-1.061,1.06H315.373a1.064,1.064,0,0,1-1.06-1.06v-29.24a1.066,1.066,0,0,1,1.06-1.07h29.243a1.067,1.067,0,0,1,1.061,1.07v29.24Zm13.45-19.32a0.87,0.87,0,1,0,0-1.74h-7.038v-3.82h7.038a0.87,0.87,0,1,0,0-1.74h-7.038v-4.09a6.019,6.019,0,0,0-6.009-6.01h-4.087v-7.04a0.87,0.87,0,0,0-1.739,0v7.04h-3.826v-7.04a0.87,0.87,0,0,0-1.739,0v7.04h-3.825v-7.04a0.87,0.87,0,0,0-1.739,0v7.04H325.3v-7.04a0.87,0.87,0,0,0-1.739,0v7.04h-3.826v-7.04a0.87,0.87,0,0,0-1.739,0v7.04h-4.087a6.019,6.019,0,0,0-6.009,6.01v4.09h-7.038a0.87,0.87,0,0,0,0,1.74H307.9v3.82h-7.038a0.87,0.87,0,0,0,0,1.74H307.9v3.83h-7.038a0.87,0.87,0,0,0,0,1.74H307.9v3.82h-7.038a0.87,0.87,0,0,0,0,1.74H307.9v3.83h-7.038a0.87,0.87,0,0,0,0,1.74H307.9v4.08a6.013,6.013,0,0,0,6.009,6.01H318v7.04a0.87,0.87,0,1,0,1.739,0v-7.04h3.826v7.04a0.87,0.87,0,1,0,1.739,0v-7.04h3.825v7.04a0.87,0.87,0,1,0,1.739,0v-7.04h3.825v7.04a0.87,0.87,0,1,0,1.739,0v-7.04h3.826v7.04a0.87,0.87,0,1,0,1.739,0v-7.04h4.087a6.013,6.013,0,0,0,6.009-6.01v-4.08h7.038a0.87,0.87,0,1,0,0-1.74h-7.038v-3.83h7.038a0.87,0.87,0,1,0,0-1.74h-7.038v-3.82h7.038a0.87,0.87,0,1,0,0-1.74h-7.038v-3.83h7.038Zm-8.777,20.78a4.272,4.272,0,0,1-4.27,4.27H313.909a4.272,4.272,0,0,1-4.27-4.27v-32.17a4.278,4.278,0,0,1,4.27-4.27H346.08a4.278,4.278,0,0,1,4.27,4.27v32.17Z" transform="translate(-300 -9209)"/>
</svg>
