<svg xmlns="http://www.w3.org/2000/svg" width="70" height="34" viewBox="0 0 70 34">
  <defs>
    <style>
      .cls-1 {
        fill: #183a5b;
        fill-rule: evenodd;
      }
    </style>
  </defs>
  <path id="_16" data-name="16" class="cls-1" d="M330,9390.41a1.636,1.636,0,0,0,.815-3.06,0.822,0.822,0,0,1,.055.3,0.87,0.87,0,0,1-1.74,0,0.822,0.822,0,0,1,.055-0.3A1.636,1.636,0,0,0,330,9390.41Zm0,1.96a3.62,3.62,0,1,0-3.633-3.62A3.635,3.635,0,0,0,330,9392.37Zm0-6.09a2.465,2.465,0,1,1-2.473,2.47A2.475,2.475,0,0,1,330,9386.28Zm-34.059-21.32,5.563,0.75h0.03a10.679,10.679,0,0,0,1.13.06,10.532,10.532,0,0,0,2.557-.31l0.743-.19v3.66h-0.458a2.82,2.82,0,1,0,0,5.64H317.04a7.927,7.927,0,0,1,1.091.08,24.2,24.2,0,0,0-8.608,20.35,1.082,1.082,0,0,0,1.083,1h0.081a1.093,1.093,0,0,0,1-1.16,22.036,22.036,0,0,1,8.37-18.96l0.577-.46a8.1,8.1,0,0,1,2.852,2.35c0.057,0.07.116,0.15,0.176,0.22a2.567,2.567,0,0,0-2.271,2.54v0.57a2.568,2.568,0,0,0,2.568,2.56h0.852a7.282,7.282,0,1,0,10.37,0h0.852a2.569,2.569,0,0,0,2.569-2.56v-0.57a2.567,2.567,0,0,0-2.272-2.54c0.06-.07.119-0.15,0.176-0.22a8.1,8.1,0,0,1,2.852-2.35l0.577,0.46a22.036,22.036,0,0,1,8.37,18.96,1.093,1.093,0,0,0,1,1.16h0.081a1.082,1.082,0,0,0,1.083-1,24.2,24.2,0,0,0-8.608-20.35,7.927,7.927,0,0,1,1.091-.08h11.534a2.82,2.82,0,1,0,0-5.64h-0.458v-3.66l0.766,0.19a10.275,10.275,0,0,0,2.525.31,10.445,10.445,0,0,0,1.116-.06h0.029l5.586-.75a1.081,1.081,0,0,0,.942-1.07,1.1,1.1,0,0,0-.942-1.08l-5.586-.75h-0.029a10.381,10.381,0,0,0-3.641.25l-1.853.46-1.852-.46a10.381,10.381,0,0,0-3.641-.25h-0.03l-5.586.75a1.1,1.1,0,0,0-.941,1.08,1.08,1.08,0,0,0,.941,1.07l5.563,0.75h0.029a10.708,10.708,0,0,0,1.13.06,10.534,10.534,0,0,0,2.558-.31l0.742-.19v3.66H340.776a3.285,3.285,0,0,1-2.694-1.4,7.19,7.19,0,0,0-5.879-3.05H327.8a7.19,7.19,0,0,0-5.879,3.05,3.285,3.285,0,0,1-2.694,1.4H308.138v-3.66l0.765,0.19a10.281,10.281,0,0,0,2.525.31,10.431,10.431,0,0,0,1.116-.06h0.03l5.586-.75a1.08,1.08,0,0,0,.941-1.07,1.1,1.1,0,0,0-.941-1.08l-5.586-.75h-0.03a10.381,10.381,0,0,0-3.641.25l-1.852.46-1.853-.46a10.381,10.381,0,0,0-3.641-.25h-0.029l-5.586.75a1.1,1.1,0,0,0-.942,1.08A1.08,1.08,0,0,0,295.941,9364.96Zm39.167,23.79a5.108,5.108,0,1,1-5.108-5.09A5.1,5.1,0,0,1,335.108,9388.75Zm1.323-7.65a0.4,0.4,0,0,1-.394.4H323.963a0.4,0.4,0,0,1-.394-0.4v-0.57a0.389,0.389,0,0,1,.394-0.39h12.074a0.389,0.389,0,0,1,.394.39v0.57ZM323.7,9368.78a5,5,0,0,1,4.1-2.13H332.2a5,5,0,0,1,4.1,2.13,5.471,5.471,0,0,0,4.474,2.31h13.718a0.66,0.66,0,1,1,0,1.32H342.96a10.323,10.323,0,0,0-8.184,4.05,3.829,3.829,0,0,1-3.046,1.51h-3.461a3.829,3.829,0,0,1-3.045-1.51,10.323,10.323,0,0,0-8.184-4.05H305.506a0.66,0.66,0,0,1,0-1.32h13.718A5.471,5.471,0,0,0,323.7,9368.78Z" transform="translate(-295 -9362)"/>
</svg>
