<svg xmlns="http://www.w3.org/2000/svg" width="70" height="50" viewBox="0 0 70 50">
  <defs>
    <style>
      .cls-1 {
        fill: #183a5b;
        fill-rule: evenodd;
      }
    </style>
  </defs>
  <path id="_19" data-name="19" class="cls-1" d="M297.932,9779.5v-7.56h7.643a0.97,0.97,0,1,0,0-1.94h-8.622a0.987,0.987,0,0,0-.692.28,0.973,0.973,0,0,0-.286.69v8.53A0.979,0.979,0,0,0,297.932,9779.5Zm66.9,0v-8.53a0.973,0.973,0,0,0-.286-0.69,0.991,0.991,0,0,0-.692-0.28h-8.623a0.97,0.97,0,1,0,0,1.94h7.644v7.56A0.979,0.979,0,0,0,364.836,9779.5Zm-1.957,30.83v7.56h-7.643a0.97,0.97,0,1,0,0,1.94h8.622a1,1,0,0,0,.692-0.29,0.95,0.95,0,0,0,.286-0.68v-8.53A0.979,0.979,0,0,0,362.879,9810.33Zm-66.9,0v8.53a0.95,0.95,0,0,0,.286.68,1,1,0,0,0,.692.29h8.623a0.97,0.97,0,1,0,0-1.94h-7.644v-7.56A0.979,0.979,0,0,0,295.975,9810.33Zm0-14.25,0.847,0.49,0-.01a39.336,39.336,0,0,1,32.763-17.76,40.016,40.016,0,0,1,25.214,8.91,44.17,44.17,0,0,1,6.315,6.14c0.7,0.83,1.224,1.53,1.57,2.01,0.173,0.24.3,0.43,0.386,0.55,0.042,0.06.072,0.11,0.093,0.14l0.021,0.04h0l0.831-.51-0.8-.56-0.005.01a39.917,39.917,0,0,1-8.851,8.27,43.418,43.418,0,0,1-25.189,7.94,39.671,39.671,0,0,1-24.612-8.11,38.366,38.366,0,0,1-5.883-5.57c-0.64-.76-1.115-1.39-1.425-1.82-0.156-.22-0.271-0.39-0.346-0.5l-0.081-.13-0.019-.03h0l-0.836.5,0.847,0.49-0.847-.49-0.836.51a35.988,35.988,0,0,0,8.231,8.57,41.709,41.709,0,0,0,25.81,8.52,45.347,45.347,0,0,0,26.6-8.5,41.372,41.372,0,0,0,9.042-8.54,0.961,0.961,0,0,0,.031-1.07,43.585,43.585,0,0,0-35.265-18.71,40.333,40.333,0,0,0-26.042,9.35,39.183,39.183,0,0,0-8.419,9.39,0.959,0.959,0,0,0,.011.99Zm51.652-.81h-0.979a16.352,16.352,0,0,1-4.876,11.65,16.787,16.787,0,0,1-23.545,0,16.343,16.343,0,0,1,0-23.29,16.762,16.762,0,0,1,23.545,0,16.311,16.311,0,0,1,4.876,11.64H348.6a18.607,18.607,0,1,0-18.606,18.41,18.508,18.508,0,0,0,18.606-18.41h-0.978Zm-10.774-4.8-0.892-.4a2.612,2.612,0,0,1-4.219.77,2.549,2.549,0,0,1-.29-3.3,0.94,0.94,0,0,0,.082-0.96,0.982,0.982,0,0,0-.809-0.56c-0.215-.01-0.457-0.03-0.726-0.03a9.281,9.281,0,1,0,9.383,9.28,9.157,9.157,0,0,0-1.73-5.36,0.979,0.979,0,0,0-1.691.16l0.892,0.4-0.8.56a7.279,7.279,0,0,1-.805,9.44,7.511,7.511,0,0,1-10.5,0,7.294,7.294,0,0,1,0-10.39,7.447,7.447,0,0,1,5.25-2.16c0.171,0,.361.02,0.575,0.04l0.076-.97-0.8-.56a4.5,4.5,0,0,0,3.739,7.1,4.566,4.566,0,0,0,4.159-2.66l-0.892-.4-0.8.56Zm-3.365,4.8H332.5a2.458,2.458,0,0,1-.735,1.76,2.547,2.547,0,0,1-3.549,0,2.474,2.474,0,0,1,0-3.52,2.548,2.548,0,0,1,3.55,0,2.475,2.475,0,0,1,.735,1.76h1.958a4.468,4.468,0,1,0-4.468,4.42,4.446,4.446,0,0,0,4.468-4.42h-0.979Zm-4.431-24.24v6.59a0.979,0.979,0,0,0,1.958,0v-6.59a0.979,0.979,0,0,0-1.958,0m0,41.41v6.59a0.979,0.979,0,0,0,1.958,0v-6.59a0.979,0.979,0,0,0-1.958,0m25.239-18.37h-6.657a0.965,0.965,0,1,0,0,1.93h6.657a0.965,0.965,0,1,0,0-1.93m-41.864,0H305.77a0.965,0.965,0,1,0,0,1.93h6.657a0.965,0.965,0,1,0,0-1.93" transform="translate(-295 -9770)"/>
</svg>
