<svg xmlns="http://www.w3.org/2000/svg" width="60" height="60" viewBox="0 0 60 60">
  <defs>
    <style>
      .cls-1 {
        fill: #183a5b;
        fill-rule: evenodd;
      }
    </style>
  </defs>
  <path id="_2" data-name="2" class="cls-1" d="M336.563,7447.12H323.437a2.814,2.814,0,0,1-2.812-2.81v-11.25a2.814,2.814,0,0,1,2.812-2.81h13.126a2.814,2.814,0,0,1,2.812,2.81v11.25A2.814,2.814,0,0,1,336.563,7447.12Zm-13.126-15a0.945,0.945,0,0,0-.937.94v11.25a0.939,0.939,0,0,0,.937.94h13.126a0.939,0.939,0,0,0,.937-0.94v-11.25a0.945,0.945,0,0,0-.937-0.94H323.437Zm14.063-.93h-1.875v-3.75a4.692,4.692,0,0,0-4.687-4.69h-1.876a4.692,4.692,0,0,0-4.687,4.69v3.75H322.5v-3.75a6.575,6.575,0,0,1,6.562-6.57h1.876a6.575,6.575,0,0,1,6.562,6.57v3.75Zm-7.5,7.5a1.875,1.875,0,1,1,1.875-1.88A1.877,1.877,0,0,1,330,7438.69Zm0.938,3.75h-1.876v-4.69h1.876v4.69ZM315,7434.94h-8.437v-1.88H315v1.88Zm-11.25,2.81a3.75,3.75,0,1,1,3.75-3.75A3.753,3.753,0,0,1,303.75,7437.75Zm0-5.63a1.875,1.875,0,1,0,1.875,1.88A1.884,1.884,0,0,0,303.75,7432.12Zm49.688,2.82H345v-1.88h8.438v1.88Zm2.812,2.81A3.75,3.75,0,1,1,360,7434,3.753,3.753,0,0,1,356.25,7437.75Zm0-5.63a1.875,1.875,0,1,0,1.875,1.88A1.884,1.884,0,0,0,356.25,7432.12Zm-6.563,17.82h-1.874v-5.63A2.814,2.814,0,0,0,345,7441.5h-3.75v-1.87H345a4.689,4.689,0,0,1,4.687,4.68v5.63Zm-0.937,6.56a3.75,3.75,0,1,1,3.75-3.75A3.753,3.753,0,0,1,348.75,7456.5Zm0-5.63a1.88,1.88,0,1,0,1.875,1.88A1.877,1.877,0,0,0,348.75,7450.87Zm-36.563-.93h-1.874v-5.63a4.689,4.689,0,0,1,4.687-4.68h3.75v1.87H315a2.814,2.814,0,0,0-2.813,2.81v5.63Zm-0.937,6.56a3.75,3.75,0,1,1,3.75-3.75A3.753,3.753,0,0,1,311.25,7456.5Zm0-5.63a1.88,1.88,0,1,0,1.875,1.88A1.877,1.877,0,0,0,311.25,7450.87Zm33.75-22.5h-3.75v-1.87H345a2.814,2.814,0,0,0,2.813-2.81v-5.63h1.874v5.63A4.689,4.689,0,0,1,345,7428.37Zm3.75-9.37a3.75,3.75,0,1,1,3.75-3.75A3.753,3.753,0,0,1,348.75,7419Zm0-5.63a1.88,1.88,0,1,0,1.875,1.88A1.884,1.884,0,0,0,348.75,7413.37Zm-30,15H315a4.689,4.689,0,0,1-4.687-4.68v-5.63h1.874v5.63A2.814,2.814,0,0,0,315,7426.5h3.75v1.87Zm-7.5-9.37a3.75,3.75,0,1,1,3.75-3.75A3.753,3.753,0,0,1,311.25,7419Zm0-5.63a1.88,1.88,0,1,0,1.875,1.88A1.884,1.884,0,0,0,311.25,7413.37Zm13.125,43.13a3.75,3.75,0,1,1,3.75-3.75A3.753,3.753,0,0,1,324.375,7456.5Zm0-5.63a1.88,1.88,0,1,0,1.875,1.88A1.877,1.877,0,0,0,324.375,7450.87Zm0.937,13.13h-1.875v-8.44h1.875V7464Zm10.313-7.5a3.75,3.75,0,1,1,3.75-3.75A3.753,3.753,0,0,1,335.625,7456.5Zm0-5.63a1.88,1.88,0,1,0,1.875,1.88A1.877,1.877,0,0,0,335.625,7450.87Zm0.938,13.13h-1.876v-8.44h1.876V7464Zm-12.188-45a3.75,3.75,0,1,1,3.75-3.75A3.753,3.753,0,0,1,324.375,7419Zm0-5.63a1.88,1.88,0,1,0,1.875,1.88A1.884,1.884,0,0,0,324.375,7413.37Zm0.937-.93h-1.875V7404h1.875v8.44Zm10.313,6.56a3.75,3.75,0,1,1,3.75-3.75A3.753,3.753,0,0,1,335.625,7419Zm0-5.63a1.88,1.88,0,1,0,1.875,1.88A1.884,1.884,0,0,0,335.625,7413.37Zm0.938-.93h-1.876V7404h1.876v8.44Zm6.562,22.5H341.25v-1.88h1.875v1.88Zm-24.375,0h-1.875v-1.88h1.875v1.88Z" transform="translate(-300 -7404)"/>
</svg>
