<svg xmlns="http://www.w3.org/2000/svg" width="60" height="57" viewBox="0 0 60 57">
  <defs>
    <style>
      .cls-1 {
        fill: #183a5b;
        fill-rule: evenodd;
      }
    </style>
  </defs>
  <path id="_20" data-name="20" class="cls-1" d="M354.99,9954.39a4.3,4.3,0,0,0-2.376.71l-16.095-14.59a7.852,7.852,0,0,0,.814-1.51l10.78,2.62c-0.007.11-.018,0.23-0.018,0.34a5.928,5.928,0,1,0,.529-2.41l-10.772-2.62c0.026-.26.04-0.52,0.04-0.78a7.588,7.588,0,0,0-.264-1.96l13.914-5.77a4.562,4.562,0,1,0-.9-2.7,4.414,4.414,0,0,0,.065.73l-13.914,5.77a7.78,7.78,0,0,0-2.584-2.61l3.8-8.5a7.892,7.892,0,0,0,2.131.3,7.705,7.705,0,1,0-7.78-7.7,7.668,7.668,0,0,0,3.682,6.53l-3.8,8.5a7.88,7.88,0,0,0-2.131-.3,7.7,7.7,0,0,0-3.113.65l-7.189-11.59a6.5,6.5,0,0,0,2.289-4.94,6.617,6.617,0,1,0-6.617,6.54,6.669,6.669,0,0,0,2.495-.48l7.187,11.58a7.692,7.692,0,0,0-2.724,4.72l-10.061-.21a6.156,6.156,0,1,0-.039,2.13l10.05,0.21a7.606,7.606,0,0,0,1.667,3.92l-11.709,12.34a4.624,4.624,0,1,0,2.35,4.02,4.538,4.538,0,0,0-.779-2.55l11.709-12.35a7.756,7.756,0,0,0,2.329,1.11l-1.046,7.24a6.163,6.163,0,1,0,2.132.3l1.044-7.23h0.025a7.815,7.815,0,0,0,4.954-1.77l16.092,14.59a4.224,4.224,0,0,0-.514,2.03A4.348,4.348,0,1,0,354.99,9954.39Zm-0.942-16.19a3.765,3.765,0,1,1-3.8,3.76A3.786,3.786,0,0,1,354.048,9938.2Zm1.217-14.92a2.445,2.445,0,1,1-2.468,2.44A2.455,2.455,0,0,1,355.265,9923.28Zm-20.751-9.57a5.627,5.627,0,1,1,5.627,5.57A5.608,5.608,0,0,1,334.514,9913.71Zm-23.5-1.15a4.464,4.464,0,1,1,4.464,4.41A4.454,4.454,0,0,1,311.018,9912.56Zm20.123,44.32a4.022,4.022,0,1,1-4.023-3.97A4.011,4.011,0,0,1,331.141,9956.88Zm-1.029-26.31a5.575,5.575,0,1,1-5.627,5.58A5.608,5.608,0,0,1,330.112,9930.57Zm-23.883,9.12a4.04,4.04,0,1,1,4.077-4.04A4.061,4.061,0,0,1,306.229,9939.69Zm3.792,20.14a2.5,2.5,0,1,1,2.523-2.5A2.514,2.514,0,0,1,310.021,9959.83Zm44.969,1.04a2.17,2.17,0,1,1,2.195-2.17A2.188,2.188,0,0,1,354.99,9960.87Z" transform="translate(-300 -9906)"/>
</svg>
