<svg xmlns="http://www.w3.org/2000/svg" width="64" height="48" viewBox="0 0 64 48">
  <defs>
    <style>
      .cls-1 {
        fill: #183a5b;
        fill-rule: evenodd;
      }
    </style>
  </defs>
  <path id="_21" data-name="21" class="cls-1" d="M361.1,10098c-3.587,0-5.02-7.3-7.148-22.9H343.363c-2.125,15.6-3.557,22.9-7.148,22.9s-5.02-7.3-7.148-22.9H318.482c-2.128,15.6-3.561,22.9-7.148,22.9s-5.02-7.3-7.148-22.9h-6.192v-2.2h5.9c-0.987-7.2-2.9-20.7-5-20.7h-0.9v-2.2h0.9c3.587,0,5.021,7.3,7.146,22.9h10.589c2.124-15.6,3.557-22.9,7.148-22.9s5.021,7.3,7.146,22.9h10.589c2.124-15.6,3.559-22.9,7.147-22.9s5.024,7.3,7.148,22.9H362v2.2h-5.9c0.987,7.2,2.895,20.7,5,20.7H362v2.2h-0.9Zm-29.882-22.9c1.047,7.7,2.894,20.7,5,20.7s4.01-13.5,5-20.7h-10Zm-24.883,0c1.047,7.7,2.894,20.7,5,20.7s4.009-13.5,5-20.7h-10Zm47.322-2.2c-0.988-7.2-2.9-20.7-5-20.7s-3.952,13-5,20.7h10Zm-24.886,0c-1.047-7.7-2.892-20.7-5-20.7s-3.953,13-5,20.7h9.994Z" transform="translate(-298 -10050)"/>
</svg>
