<svg xmlns="http://www.w3.org/2000/svg" width="60" height="58" viewBox="0 0 60 58">
  <defs>
    <style>
      .cls-1 {
        fill: #183a5b;
        fill-rule: evenodd;
      }
    </style>
  </defs>
  <path id="_23" data-name="23" class="cls-1" d="M309.6,10367.8a3.306,3.306,0,0,1-3.279,3.3H300v8.9h2.186v-6.7h4.131a5.509,5.509,0,0,0,5.464-5.5v-2.5H309.6v2.5Zm0.988-25.7v0.2l7.15,14.9a0.986,0.986,0,0,1-.061,1,0.925,0.925,0,0,1-.924.5H309.6v4.4h2.185v-2.2h4.968a3.14,3.14,0,0,0,2.774-1.5,3.322,3.322,0,0,0,.181-3.2l-6.936-14.4c-0.088-9.2-5.1-16.6-12.768-19.8v2.4C306.449,10327.5,310.584,10334,310.584,10342.1Zm44.5,27v-2.2a1.61,1.61,0,0,1,1.639-1.6H360v-2.2h-3.278a3.814,3.814,0,0,0-3.825,3.8v2.2a1.639,1.639,0,0,1-3.278,0v-13a3.825,3.825,0,0,0-7.649,0v20.1a1.64,1.64,0,0,1-3.279,0v-28.9a3.825,3.825,0,0,0-7.649,0v21.8a1.639,1.639,0,0,1-3.278,0v-2.2a3.814,3.814,0,0,0-3.825-3.8h-3.911v2.2h3.911a1.61,1.61,0,0,1,1.639,1.6v2.2a3.825,3.825,0,0,0,7.65,0v-21.8a1.64,1.64,0,1,1,3.278,0v28.9a3.825,3.825,0,0,0,7.649,0v-20.1a1.639,1.639,0,0,1,3.278,0v13A3.825,3.825,0,0,0,355.082,10369.1Z" transform="translate(-300 -10322)"/>
</svg>
