<svg xmlns="http://www.w3.org/2000/svg" width="60" height="58" viewBox="0 0 60 58">
  <defs>
    <style>
      .cls-1 {
        fill: #183a5b;
        fill-rule: evenodd;
      }
    </style>
  </defs>
  <path id="_24" data-name="24" class="cls-1" d="M355.593,10499.4v-2.6a1.6,1.6,0,0,1,1.621-1.6H360v-2.2h-2.786a3.792,3.792,0,0,0-3.781,3.8v2.6a1.621,1.621,0,0,1-3.241,0V10483a3.781,3.781,0,1,0-7.562,0v23.9a1.625,1.625,0,0,1-3.241,0v-15.3a3.781,3.781,0,1,0-7.562,0v7.8a1.621,1.621,0,0,1-3.241,0v-2.6a3.793,3.793,0,0,0-3.782-3.8h-2.16v2.2h2.16a1.6,1.6,0,0,1,1.621,1.6v2.6a3.782,3.782,0,0,0,7.562,0v-7.8a1.621,1.621,0,0,1,3.241,0v15.3a3.782,3.782,0,0,0,7.562,0V10483a1.621,1.621,0,0,1,3.241,0v16.4A3.782,3.782,0,0,0,355.593,10499.4Zm-37.2-30.7c-6.417,0-12.907,4.4-13.167,13h2.16c0.253-7.5,5.822-10.9,11.007-10.9a10.6,10.6,0,0,1,10.982,10.9h2.17C331.288,10473.1,324.805,10468.7,318.4,10468.7Zm0,6.3c-4.105,0-8.261,3-8.261,8.8,0,5.1,2.23,8,4.387,10.7,2.369,3,4.819,6.2,4.819,12.9H321.5c0-7.5-2.8-11-5.27-14.2-2.113-2.7-3.937-5-3.937-9.4,0-4.6,3.163-6.7,6.1-6.7a5.773,5.773,0,0,1,5.839,4.6h2.213A8.1,8.1,0,0,0,318.392,10475Zm-6.631,36.5a8.624,8.624,0,0,0,17.247,0h-2.161a6.463,6.463,0,0,1-12.925,0c0-7.8-3.078-11.6-6.055-15.3-2.935-3.7-5.706-7.1-5.706-14.5,0-12.1,8.408-17.6,16.221-17.6a16.09,16.09,0,0,1,11.149,4.4c3.326,3.2,5.084,7.7,5.084,13.2h2.161c0-13.5-9.535-19.7-18.394-19.7S300,10468.2,300,10481.7c0,8.1,3.138,12,6.173,15.8C309.047,10501,311.761,10504.4,311.761,10511.5Z" transform="translate(-300 -10462)"/>
</svg>
