<svg xmlns="http://www.w3.org/2000/svg" width="60" height="68" viewBox="0 0 60 68">
  <defs>
    <style>
      .cls-1 {
        fill: #183a5b;
        fill-rule: evenodd;
      }
    </style>
  </defs>
  <path id="_25" data-name="25" class="cls-1" d="M358.335,10642.6l-10.5-8h-0.045a8.072,8.072,0,0,0-5.75-5.2l-0.226.8v-21.5a7.5,7.5,0,0,0-7.273-7.4v-3.3a2.027,2.027,0,0,0-2.045-2h-5.016a2.027,2.027,0,0,0-2.044,2v3.3a7.563,7.563,0,0,0-7.259,7.4v21.5l-0.226-.8a8.072,8.072,0,0,0-5.75,5.2h-0.045l-10.461,8a3.476,3.476,0,0,0-1.2,4.8,4.055,4.055,0,0,0,.907,1h-0.013l8.448,15.1a0.936,0.936,0,0,0,.8.5h0.3a0.948,0.948,0,0,0,.6-1l-2.925-15.8,7.1-3.5a8.733,8.733,0,0,0,4.283,1.1,8.15,8.15,0,0,0,5.454-2v1.2a0.823,0.823,0,0,0,.909.8h7.273a0.823,0.823,0,0,0,.909-0.8v-1.2a8.148,8.148,0,0,0,5.454,2,8.729,8.729,0,0,0,4.282-1.1l7.04,3.5-2.93,15.8a0.947,0.947,0,0,0,.6,1h0.3a0.935,0.935,0,0,0,.8-0.5l8.409-15a4.505,4.505,0,0,0,1-1.1A3.547,3.547,0,0,0,358.335,10642.6Zm-0.413,3.9a1.9,1.9,0,0,1-2.572.7l-9.512-4.7a7.629,7.629,0,0,0,2.339-5.4l9.053,6.9A1.818,1.818,0,0,1,357.922,10646.5ZM320,10635.2h5.454v3.5h-3.516a1.87,1.87,0,0,1-1.938-1.8v-1.7Zm7.272,3.5v-6.9h5.455v6.9h-5.455Zm7.273-3.5H340v1.7a1.87,1.87,0,0,1-1.938,1.8h-3.516v-3.5Zm5.454-1.7h-5.454v-2.6a0.9,0.9,0,0,0-.909-0.9h-7.273a0.9,0.9,0,0,0-.909.9v2.6H320v-7.8h20v7.8Zm0-9.6H320v-12.2h20v12.2Zm-12.515-26.2H332.5a0.251,0.251,0,0,1,.227.3v3.2h-5.469v-3.2A0.251,0.251,0,0,1,327.483,10597.7Zm-1.521,5.3h8.073a5.806,5.806,0,0,1,5.963,5.7v1.3H320v-1.3A5.805,5.805,0,0,1,325.962,10603Zm-23.246,41H302.8l9.023-6.9a7.629,7.629,0,0,0,2.339,5.4l-9.512,4.7a1.9,1.9,0,0,1-2.572-.7A1.843,1.843,0,0,1,302.716,10644Zm6.031,13.9-4.852-8.7a3.078,3.078,0,0,0,1.594-.4l1.436-.7ZM320,10643.1a6.22,6.22,0,0,1-6.364-6.1,6.036,6.036,0,0,1,4.545-5.8v5.7a3.675,3.675,0,0,0,3.757,3.6H325.2A6.433,6.433,0,0,1,320,10643.1Zm7.272,0v-2.6h5.455v2.6h-5.455Zm7.523-2.6h3.266a3.675,3.675,0,0,0,3.757-3.6v-5.7a6.036,6.036,0,0,1,4.545,5.8,6.22,6.22,0,0,1-6.364,6.1A6.43,6.43,0,0,1,334.794,10640.5Zm18.216,7.5,1.5,0.8a4.188,4.188,0,0,0,1.528.4l-4.854,8.7Z" transform="translate(-300 -10596)"/>
</svg>
