<svg xmlns="http://www.w3.org/2000/svg" width="56" height="58" viewBox="0 0 56 58">
  <defs>
    <style>
      .cls-1 {
        fill: #183a5b;
        fill-rule: evenodd;
      }
    </style>
  </defs>
  <path id="_26" data-name="26" class="cls-1" d="M328.517,10763.3a5.7,5.7,0,1,0,5.9,5.7A5.772,5.772,0,0,0,328.517,10763.3Zm0,9.2a3.5,3.5,0,1,1,3.56-3.5A3.553,3.553,0,0,1,328.517,10772.5Zm25.727,5a28.192,28.192,0,0,0-6.607-8.5,41.484,41.484,0,0,0,2.945-3c4.067-4.7,5.406-8.7,3.773-11.5-1.634-2.7-5.937-3.7-12.114-2.6-1.322.3-2.708,0.6-4.131,1-2-7.9-5.47-12.9-9.593-12.9-1.549,0-3.806.8-6,4.1h-0.8a3.861,3.861,0,0,0-3.917,3.8,3.734,3.734,0,0,0,1.7,3.1c-0.188.6-.366,1.3-0.534,1.9-1.438-.4-2.837-0.7-4.172-1-6.18-1.1-10.48-.1-12.114,2.6-1.633,2.8-.293,6.8,3.773,11.5a41.468,41.468,0,0,0,2.924,3c-6.022,5.6-8.757,11-6.7,14.5,0.827,1.4,2.776,3,7.353,3a3.923,3.923,0,0,0,3.68,2.6,3.856,3.856,0,0,0,3.9-3.6,6.442,6.442,0,0,1,1.317-.4c2,7.9,5.47,12.9,9.591,12.9s7.6-5,9.594-12.9a34.269,34.269,0,0,0,8.793,1.4,10.5,10.5,0,0,0,6.059-1.5,4.11,4.11,0,0,0,1.118.1,3.862,3.862,0,0,0,3.918-3.8A3.9,3.9,0,0,0,354.244,10777.5Zm-11.583-23.3c4.983-.9,8.6-0.4,9.666,1.4s-0.25,5.2-3.529,8.9a39.545,39.545,0,0,1-2.889,3,61.728,61.728,0,0,0-6.232-4.7,63.721,63.721,0,0,0-1.056-7.7A33.136,33.136,0,0,1,342.661,10754.2Zm-9.61,22.4a47.775,47.775,0,0,1-4.535,2.4q-2.221-1.05-4.533-2.4c-1.509-.8-2.961-1.7-4.358-2.6-0.108-1.6-.175-3.3-0.175-5s0.056-3.3.167-5a50.7,50.7,0,0,1,4.366-2.6,50.182,50.182,0,0,1,4.534-2.4,50.048,50.048,0,0,1,4.534,2.4c1.509,0.8,2.962,1.7,4.359,2.6,0.108,1.6.174,3.3,0.174,5s-0.066,3.4-.175,5C336.012,10774.9,334.56,10775.8,333.051,10776.6Zm4.107,0.3c-0.206,1.9-.477,3.6-0.811,5.3-1.644-.6-3.362-1.2-5.153-2,1.013-.5,2.024-1,3.027-1.6S336.2,10777.5,337.158,10776.9Zm-11.334,3.3c-1.743.8-3.464,1.4-5.135,2-0.335-1.7-.606-3.4-0.813-5.3,0.959,0.6,1.933,1.1,2.937,1.7S324.824,10779.7,325.824,10780.2Zm-8.641-7.8c-1.546-1.1-2.988-2.3-4.32-3.4,1.3-1.1,2.755-2.2,4.328-3.3-0.048,1.1-.082,2.2-0.082,3.3S317.137,10771.3,317.183,10772.4Zm2.7-11.3c0.2-1.8.48-3.6,0.82-5.3,1.673,0.6,3.391,1.2,5.138,2-1.009.5-2.018,1-3.024,1.6S320.83,10760.5,319.879,10761.1Zm11.318-3.3c1.75-.8,3.472-1.4,5.148-2,0.335,1.7.607,3.5,0.814,5.3-0.957-.5-1.932-1.1-2.938-1.7S332.206,10758.3,331.2,10757.8Zm8.655,7.9c1.546,1.1,2.989,2.2,4.313,3.3-1.33,1.1-2.77,2.3-4.313,3.4,0.045-1.1.073-2.3,0.073-3.4S339.9,10766.8,339.852,10765.7Zm-18.133-19.4a1.58,1.58,0,0,1,1.577,1.6,1.579,1.579,0,0,1-3.154,0A1.58,1.58,0,0,1,321.719,10746.3Zm0.015,5.4a3.853,3.853,0,0,0,3.9-3.8,3.8,3.8,0,0,0-1.092-2.7c0.975-1.4,2.357-2.9,3.972-2.9,2.676,0,5.543,4.3,7.32,11.3a63.085,63.085,0,0,0-7.32,2.9,63.01,63.01,0,0,0-7.314-2.9C321.369,10752.9,321.546,10752.3,321.734,10751.7Zm-13.5,12.8c-3.279-3.7-4.6-7.1-3.529-8.9s4.685-2.3,9.666-1.4a33.817,33.817,0,0,1,4.082.9,66.529,66.529,0,0,0-1.076,7.6c-2.32,1.6-4.424,3.2-6.279,4.7A26.173,26.173,0,0,1,308.236,10764.5Zm5.476,22.3a1.559,1.559,0,0,1-1.577-1.5,1.577,1.577,0,1,1,3.154,0A1.56,1.56,0,0,1,313.712,10786.8Zm3.312-3.5a3.879,3.879,0,0,0-3.312-1.8,3.823,3.823,0,0,0-3.757,2.7c-2.67,0-4.535-.6-5.248-1.8-1.338-2.3,1.038-6.8,6.422-11.8,1.872,1.6,3.965,3.1,6.228,4.7a64.616,64.616,0,0,0,1.057,7.6A7.013,7.013,0,0,0,317.024,10783.3Zm11.493,12.4c-2.675,0-5.542-4.2-7.319-11.3a62.62,62.62,0,0,0,7.322-2.9,51.8,51.8,0,0,0,7.314,2.9C334.056,10791.5,331.192,10795.7,328.517,10795.7Zm10.107-12.8a65.268,65.268,0,0,0,1.054-7.6c2.262-1.6,4.355-3.1,6.227-4.7a25.287,25.287,0,0,1,6.064,7.5,3.866,3.866,0,0,0-1.805,3.2,3.442,3.442,0,0,0,.748,2.2C348.64,10784.6,344.239,10784.4,338.624,10782.9Zm15.457,0a1.58,1.58,0,0,1-1.577-1.6,1.579,1.579,0,0,1,3.154,0A1.579,1.579,0,0,1,354.081,10782.9Z" transform="translate(-302 -10740)"/>
</svg>
