<svg xmlns="http://www.w3.org/2000/svg" width="54" height="54" viewBox="0 0 54 54">
  <defs>
    <style>
      .cls-1 {
        fill: #183a5b;
        fill-rule: evenodd;
      }
    </style>
  </defs>
  <path id="_29" data-name="29" class="cls-1" d="M313.047,11197.7a1.233,1.233,0,0,0-2.116,0l-7.767,13.5a1.2,1.2,0,0,0,1.057,1.8h15.541a1.187,1.187,0,0,0,1.221-1.2,1.125,1.125,0,0,0-.221-0.7Zm-6.711,12.9,5.653-9.8,5.653,9.8H306.336Zm44.1-26.4a1.222,1.222,0,0,0-2.443,0v11.7a1.7,1.7,0,0,1-1.763,1.7H330.382a1.7,1.7,0,0,1-1.764-1.7v-21.1a4.218,4.218,0,0,0-4.206-4.2H307.206a4.218,4.218,0,0,0-4.206,4.2v7.4a4.218,4.218,0,0,0,4.206,4.2H309a1.78,1.78,0,0,1,1.764,1.8v4.7a1.221,1.221,0,0,0,2.442,0v-4.7A4.218,4.218,0,0,0,309,11184h-1.8a1.78,1.78,0,0,1-1.764-1.8v-7.4a1.78,1.78,0,0,1,1.764-1.8h17.206a1.779,1.779,0,0,1,1.763,1.8v21.1a4.218,4.218,0,0,0,4.207,4.2h15.849a4.218,4.218,0,0,0,4.206-4.2v-11.7Zm-2.06-4.5a1.319,1.319,0,0,0,1.675,0c0.292-.3,7.158-6.8,6.944-13a7.781,7.781,0,0,0-15.561,0C341.223,11172.8,348.084,11179.4,348.377,11179.7Zm-4.5-12.9a5.34,5.34,0,1,1,10.679,0c0.136,3.9-3.619,8.4-5.338,10.2C347.5,11175.2,343.74,11170.7,343.876,11166.8Zm7.51,0a2.171,2.171,0,1,0-2.171,2.2A2.2,2.2,0,0,0,351.386,11166.8Zm-19.315,43.2h-4.584a1.253,1.253,0,0,0-1.221,1.2,1.274,1.274,0,0,0,1.221,1.3h4.584a1.274,1.274,0,0,0,1.222-1.3A1.254,1.254,0,0,0,332.071,11210Zm11.854,0h-4.584a1.253,1.253,0,0,0-1.221,1.2,1.274,1.274,0,0,0,1.221,1.3h4.584a1.274,1.274,0,0,0,1.222-1.3A1.254,1.254,0,0,0,343.925,11210Zm11.855,0H351.2a1.253,1.253,0,0,0-1.221,1.2,1.274,1.274,0,0,0,1.221,1.3h4.585a1.274,1.274,0,0,0,1.221-1.3A1.253,1.253,0,0,0,355.78,11210Zm-51.559-48h4.584a1.254,1.254,0,0,0,1.222-1.2,1.274,1.274,0,0,0-1.222-1.3h-4.584a1.274,1.274,0,0,0-1.221,1.3A1.253,1.253,0,0,0,304.221,11162Zm11.854,0h4.585a1.253,1.253,0,0,0,1.221-1.2,1.274,1.274,0,0,0-1.221-1.3h-4.585a1.274,1.274,0,0,0-1.221,1.3A1.253,1.253,0,0,0,316.075,11162Zm11.854,0h4.585a1.253,1.253,0,0,0,1.221-1.2,1.274,1.274,0,0,0-1.221-1.3h-4.585a1.274,1.274,0,0,0-1.221,1.3A1.253,1.253,0,0,0,327.929,11162Z" transform="translate(-303 -11159)"/>
</svg>
