<svg xmlns="http://www.w3.org/2000/svg" width="50" height="67" viewBox="0 0 50 67">
  <defs>
    <style>
      .cls-1 {
        fill: #183a5b;
        fill-rule: evenodd;
      }
    </style>
  </defs>
  <path id="_3" data-name="3" class="cls-1" d="M322.955,7590.76h-3.732a0.97,0.97,0,1,0,0,1.94h3.732A0.97,0.97,0,1,0,322.955,7590.76Zm17.818,0h-3.732a0.97,0.97,0,1,0,0,1.94h3.732A0.97,0.97,0,1,0,340.773,7590.76Zm-20.535-8.01h18.845a0.974,0.974,0,0,0,.982-0.97v-7.13a0.974,0.974,0,0,0-.982-0.97H320.238a0.974,0.974,0,0,0-.982.97v7.13A0.974,0.974,0,0,0,320.238,7582.75Zm0.981-7.13H338.1v5.19H321.219v-5.19Zm-0.981-3.29a0.973,0.973,0,0,0,.981-0.97v-2.3a0.982,0.982,0,0,0-1.963,0v2.3A0.974,0.974,0,0,0,320.238,7572.33Zm3.141,0a0.973,0.973,0,0,0,.981-0.97v-2.3a0.982,0.982,0,0,0-1.963,0v2.3A0.974,0.974,0,0,0,323.379,7572.33Zm3.141,0a0.973,0.973,0,0,0,.981-0.97v-2.3a0.982,0.982,0,0,0-1.963,0v2.3A0.973,0.973,0,0,0,326.52,7572.33Zm3.14,0a0.973,0.973,0,0,0,.982-0.97v-2.3a0.982,0.982,0,0,0-1.963,0v2.3A0.973,0.973,0,0,0,329.66,7572.33Zm3.141,0a0.973,0.973,0,0,0,.982-0.97v-2.3a0.982,0.982,0,0,0-1.963,0v2.3A0.973,0.973,0,0,0,332.8,7572.33Zm3.141,0a0.974,0.974,0,0,0,.982-0.97v-2.3a0.982,0.982,0,0,0-1.963,0v2.3A0.973,0.973,0,0,0,335.942,7572.33Zm3.141,0a0.974,0.974,0,0,0,.982-0.97v-2.3a0.982,0.982,0,0,0-1.963,0v2.3A0.973,0.973,0,0,0,339.083,7572.33Zm14.942,4.91h-3.149a0.975,0.975,0,1,0,0,1.95h3.149A0.975,0.975,0,1,0,354.025,7577.24Zm-44.9,0h-3.149a0.975,0.975,0,1,0,0,1.95h3.149A0.975,0.975,0,1,0,309.12,7577.24Zm16.133-27.83a0.981,0.981,0,0,0-.981.98v3.39a0.982,0.982,0,0,0,1.963,0v-3.39A0.981,0.981,0,0,0,325.253,7549.41Zm9.49,5.27a0.973,0.973,0,0,0,.981-0.97v-3.26a0.982,0.982,0,0,0-1.963,0v3.26A0.974,0.974,0,0,0,334.743,7554.68Zm11.961,9.84H334.311v-2.3c5.693-1.84,10.049-7.14,10.049-13.03,0-6.02-1.706-12.18-14.361-12.18s-14.363,6.16-14.363,12.18c0,5.89,4.357,11.19,10.05,13.03v2.3H313.292a8.264,8.264,0,0,0-8.3,8.21v23.84a0.973,0.973,0,0,0,.981.97h3.661a0.974,0.974,0,0,0,.982-0.97v-2.29a4.6,4.6,0,0,0,3.659-4.48v-3.47h1.189v11.53a5.851,5.851,0,0,0-3.152,5.16,0.974,0.974,0,0,0,.982.97h15.293a0.973,0.973,0,0,0,.981-0.97,5.859,5.859,0,0,0-2.849-5v-11.69h6.563v11.69a5.859,5.859,0,0,0-2.849,5,0.974,0.974,0,0,0,.982.97H346.7a0.973,0.973,0,0,0,.982-0.97,5.852,5.852,0,0,0-3.151-5.16v-11.53h1.188v3.47a4.606,4.606,0,0,0,3.661,4.48v2.29a0.973,0.973,0,0,0,.981.97h3.66a0.973,0.973,0,0,0,.982-0.97v-23.84A8.265,8.265,0,0,0,346.7,7564.52Zm6.34,8.21v14.41h-5.358v-20.6A6.289,6.289,0,0,1,353.044,7572.73Zm-25.447-12a4.161,4.161,0,0,1-1.116-.53l-1.852-1.27a5.149,5.149,0,0,1-2.42-3.75l-0.521-5.13c-0.039-.46-0.055-0.92-0.055-1.38,0-2.58.01-5.26,8.366-5.26s8.36,2.68,8.365,5.26c0,0.46-.016.92-0.055,1.36l-0.523,5.16a5.138,5.138,0,0,1-2.418,3.74l-1.852,1.27a4.161,4.161,0,0,1-1.116.53A12.135,12.135,0,0,1,327.6,7560.73Zm-10-11.54c0-6.32,2.074-10.24,12.4-10.24s12.4,3.92,12.4,10.24a11.281,11.281,0,0,1-2.891,7.38,6.068,6.068,0,0,0,.235-1.2l0.523-5.16c0.045-.51.064-1.03,0.063-1.54-0.006-3.64-.809-7.2-10.328-7.2s-10.322,3.56-10.329,7.2c0,0.51.018,1.03,0.063,1.55l0.522,5.14a6.029,6.029,0,0,0,.239,1.21A11.275,11.275,0,0,1,317.6,7549.19Zm10.05,13.72h4.7v1.61h-4.7v-1.61Zm-20.7,9.82a6.288,6.288,0,0,1,5.357-6.19v20.6h-5.357v-14.41Zm1.7,22.87h-1.7v-6.52h1.7v6.52Zm3.66-5.8a2.638,2.638,0,0,1-1.7,2.46v-3.18h1.7v0.72Zm2.085,12.25a3.982,3.982,0,0,1,3.867-2.97h5.353a3.981,3.981,0,0,1,3.866,2.97H314.4Zm10.359-4.8a6.109,6.109,0,0,0-1.139-.11h-5.353a5.774,5.774,0,0,0-.837.08v-10.89h7.329v10.92Zm20.847,4.8H332.516a3.982,3.982,0,0,1,3.866-2.97h5.353A3.981,3.981,0,0,1,345.6,7602.05Zm-3.03-4.83a5.76,5.76,0,0,0-.836-0.08h-5.353a6.1,6.1,0,0,0-1.139.11v-10.92h7.328v10.89Zm0.982-12.84h-29.28v-17.92h31.45v17.92h-2.17Zm4.133,5.42v-0.72h1.7v3.18A2.638,2.638,0,0,1,347.686,7589.8Zm5.358,5.8h-1.7v-6.52h1.7v6.52Z" transform="translate(-305 -7537)"/>
</svg>
