<svg xmlns="http://www.w3.org/2000/svg" width="60" height="57" viewBox="0 0 60 57">
  <defs>
    <style>
      .cls-1 {
        fill: #183a5b;
        fill-rule: evenodd;
      }
    </style>
  </defs>
  <path id="_30" data-name="30" class="cls-1" d="M359.766,11322.8a6.6,6.6,0,0,0-3.073-4h0a6.65,6.65,0,0,0-7.511.6l-14.613-13.2c0.088-.1.182-0.2,0.261-0.3a6.58,6.58,0,0,0,.661-5,6.33,6.33,0,0,0-3.073-4h0a6.592,6.592,0,0,0-9.024,2.4,6.43,6.43,0,0,0-.507,5.4l-10.914,5.7a6.377,6.377,0,0,0-2.07-1.9h0a6.68,6.68,0,0,0-9.024,2.4,6.618,6.618,0,0,0,5.7,9.9,6.264,6.264,0,0,0,2.972-.8l3.42,4.9-3.52,5.3a6.573,6.573,0,1,0-2.871,12.5,6.677,6.677,0,0,0,5.55-3l10.658,4.8a6.624,6.624,0,0,0,6.309,8.5,6.645,6.645,0,0,0,5.731-3.3,6.522,6.522,0,0,0,.661-5,6.887,6.887,0,0,0-.911-2l14.6-13.1c0.281,0.2.58,0.4,0.907,0.6a6.564,6.564,0,0,0,3.289.9,6.646,6.646,0,0,0,5.732-3.3A6.522,6.522,0,0,0,359.766,11322.8Zm-27.348,17.9h0a6.626,6.626,0,0,0-6.264-.1l-6.926-10,4.515-2.3a6.153,6.153,0,0,0,2.067,1.9,6.564,6.564,0,0,0,3.289.9,6.645,6.645,0,0,0,5.732-3.3,7.309,7.309,0,0,0,.819-2.4H346.86a7.066,7.066,0,0,0,1.065,2.8l-14.6,13.2A4.232,4.232,0,0,0,332.418,11340.7Zm-8.848,2.2-10.65-4.9a6.585,6.585,0,0,0,.055-3.6c-0.043-.2-0.1-0.3-0.149-0.5l4.731-2.4,7.061,10.1A6.981,6.981,0,0,0,323.57,11342.9Zm2.693-34.4a7.047,7.047,0,0,0,2.835.6,6.534,6.534,0,0,0,4.219-1.5l14.607,13.2c-0.088.1-.176,0.3-0.256,0.4a7.134,7.134,0,0,0-.813,2.4h-11.21a7.046,7.046,0,0,0-.154-0.8,6.6,6.6,0,0,0-3.073-4h0a6.7,6.7,0,0,0-8.847,2.1l-4.333-1.9Zm-1.256,13.6a4.745,4.745,0,0,1,4.126-2.3,4.963,4.963,0,0,1,2.354.6,4.78,4.78,0,0,1,1.728,6.5A4.754,4.754,0,0,1,325.007,11322.1Zm-2.218.5a6.753,6.753,0,0,0,.1,4.1l-4.733,2.4-2.922-4.2,2.956-4.4Zm2.218-22.4a4.745,4.745,0,0,1,4.126-2.3,4.96,4.96,0,0,1,2.354.6,4.529,4.529,0,0,1,2.2,2.8,4.672,4.672,0,0,1-.474,3.6,4.74,4.74,0,0,1-6.474,1.8c-0.072-.1-0.139-0.1-0.209-0.2h-0.046c-0.023,0-.047,0-0.071-0.1A4.639,4.639,0,0,1,325.007,11300.2Zm-1.265,6.2a10.872,10.872,0,0,0,.962,1.1l-7.182,10.7-4.6-2.1a6.585,6.585,0,0,0,.055-3.6c-0.043-.2-0.1-0.3-0.149-0.5Zm-19.517,11.9a4.7,4.7,0,0,1,2.391-8.8,4.967,4.967,0,0,1,2.355.6,4.308,4.308,0,0,1,1.826,1.9h0.016a4.09,4.09,0,0,1,.36,1,4.491,4.491,0,0,1-.474,3.5A4.74,4.74,0,0,1,304.225,11318.3Zm6.863,0.7a7,7,0,0,0,1.044-1.3l4.34,2-2.385,3.6Zm5.394,11-4.51,2.3a5.585,5.585,0,0,0-.965-1.1l3.11-4.6Zm-12.257,10.2a4.7,4.7,0,0,1,2.391-8.8,4.96,4.96,0,0,1,2.354.6,4.779,4.779,0,0,1,1.729,6.5A4.8,4.8,0,0,1,304.225,11340.2Zm28.99,8.6a4.8,4.8,0,0,1-6.474,1.7,4.672,4.672,0,0,1-1.935-6h0a1.174,1.174,0,0,1,.2-0.4,4.843,4.843,0,0,1,4.126-2.4,4.953,4.953,0,0,1,2.353.6,5.016,5.016,0,0,1,2.2,2.9A4.731,4.731,0,0,1,333.215,11348.8Zm24.276-21.9a4.755,4.755,0,0,1-8.209-4.8,4.744,4.744,0,0,1,4.126-2.3,4.956,4.956,0,0,1,2.353.6A4.781,4.781,0,0,1,357.491,11326.9Z" transform="translate(-300 -11296)"/>
</svg>
