<svg xmlns="http://www.w3.org/2000/svg" width="66" height="66" viewBox="0 0 66 66">
  <defs>
    <style>
      .cls-1 {
        fill: #183a5b;
        stroke: #fff;
        stroke-linejoin: round;
        stroke-width: 1px;
        fill-rule: evenodd;
      }
    </style>
  </defs>
  <path id="_31" data-name="31" class="cls-1" d="M330.494,11443.5h-0.97a18.509,18.509,0,0,0-.146,37h1.287a18.526,18.526,0,0,0,12.415-31.6A19.065,19.065,0,0,0,330.494,11443.5Zm13.212,10.6h-5.325a23.2,23.2,0,0,0-1.573-4.8,13.168,13.168,0,0,0-1.166-2.1,16.119,16.119,0,0,1,5.57,3.6A15.809,15.809,0,0,1,343.706,11454.1Zm2.146,7.9a16.147,16.147,0,0,1-.52,4H339.04a38.768,38.768,0,0,0,.207-4,37.771,37.771,0,0,0-.371-5.3h6.052A16.078,16.078,0,0,1,345.852,11462Zm-31.682,0a15.74,15.74,0,0,1,.931-5.3h6.053a37.915,37.915,0,0,0-.376,5.3,38.757,38.757,0,0,0,.209,4h-6.305A16.191,16.191,0,0,1,314.17,11462Zm9.25,0a34.118,34.118,0,0,1,.4-5.3h4.855v9.3h-5.033A36.072,36.072,0,0,1,323.42,11462Zm7.9-15.5a8.514,8.514,0,0,1,3.089,3.9,20,20,0,0,1,1.261,3.7h-4.35v-7.6Zm-2.642,0v7.6h-4.323C325.34,11450.2,326.981,11447.5,328.678,11446.5Zm0,22.1v8.9a8.486,8.486,0,0,1-3.061-3.9,20.926,20.926,0,0,1-1.568-5h4.629Zm2.642,8.9v-8.9h4.656C335.049,11473.2,333.218,11476.5,331.32,11477.5Zm0-11.5v-9.3H336.2a35.339,35.339,0,0,1,.4,5.3,36.819,36.819,0,0,1-.224,4h-5.06Zm-6.895-18.8a20.905,20.905,0,0,0-2.772,6.9h-5.327A15.65,15.65,0,0,1,324.425,11447.2Zm-8.809,21.4h5.746a25.389,25.389,0,0,0,1.855,6.1,13.244,13.244,0,0,0,1.161,2.1,16.124,16.124,0,0,1-5.569-3.6A14.984,14.984,0,0,1,315.616,11468.6Zm19.991,8.2a22.639,22.639,0,0,0,3.047-8.2H344.4A15.846,15.846,0,0,1,335.607,11476.8Zm-4.674-36.9-1.708-1.7h0.786a23.678,23.678,0,0,1,22.554,16.3l2.507-.9a26.326,26.326,0,0,0-25.061-18h-0.786l1.708-1.7-1.868-1.9-4.9,4.9,4.9,4.9Zm-21.138,23-1.868-1.8-1.709,1.7v-0.8a23.76,23.76,0,0,1,17.5-22.9l-0.7-2.6a26.535,26.535,0,0,0-19.444,25.5v0.8l-1.708-1.7-1.868,1.8,4.9,4.9Zm20.591,21.2,1.708,1.7h-2.083a23.807,23.807,0,0,1-22.94-17.5l-2.549.6a26.438,26.438,0,0,0,25.489,19.5h2.083l-1.708,1.7,1.868,1.9,4.9-4.9-4.9-4.9ZM360,11459.7l-4.892-4.9-4.9,4.9,1.869,1.9,1.7-1.7v2.1a23.812,23.812,0,0,1-16.27,22.6l0.833,2.5a26.421,26.421,0,0,0,18.079-25.1v-2.1l1.708,1.7Z" transform="translate(-297 -11429)"/>
</svg>
