<svg xmlns="http://www.w3.org/2000/svg" width="60" height="45" viewBox="0 0 60 45">
  <defs>
    <style>
      .cls-1 {
        fill: #183a5b;
        fill-rule: evenodd;
      }
    </style>
  </defs>
  <path id="_5" data-name="5" class="cls-1" d="M354.981,7849.28c0.5-10.95-6.673-18.93-14.209-21.21-6.07-1.84-12.274-1.27-16.595,1.52-3.57,2.3-5.762,5.94-6.527,10.81a10.648,10.648,0,0,0-8.035,1.98,10.173,10.173,0,0,0-4.008,7.06c-3.686.48-5.607,4-5.605,7.49,0,3.38,1.907,7.02,6.084,7.02h15.408v-1.78H306.086c-2.951,0-4.274-2.63-4.275-5.24,0-2.86,1.593-5.75,4.645-5.76a0.894,0.894,0,0,0,.9-0.86,8.433,8.433,0,0,1,3.355-6.52,8.857,8.857,0,0,1,7.494-1.47,0.938,0.938,0,0,0,.73-0.13,0.908,0.908,0,0,0,.38-0.63c0.554-4.81,2.522-8.33,5.849-10.48,3.877-2.5,9.512-2.99,15.074-1.31,7.042,2.14,13.728,9.77,12.884,20.22a0.888,0.888,0,0,0,.237.68,0.914,0.914,0,0,0,.664.28c2.1,0,4.165,2.97,4.165,5.99,0,1.57-.624,5.23-6.411,5.23h-8.906v1.78h8.906c6.061,0,8.22-3.62,8.22-7.01C360,7853.62,357.911,7849.95,354.981,7849.28Zm-27.964,10.49h10.277v-10.14H327.017v10.14Zm1.809-8.35h6.66v6.56h-6.66v-6.56Zm8.7,11.26h2.72v-2.67h1.765v-1.78h-1.765v-2.64h1.765v-1.78h-1.765v-2.64h1.765v-1.78h-1.765v-2.63h1.765v-1.78h-1.808v1.74h-2.664v-1.73h-1.809v1.73h-2.671v-1.73h-1.808v1.73h-2.672v-1.73h-1.809v1.73h-2.666v-1.74H322.3v1.78h1.766v2.63H322.3v1.78h1.766v2.64H322.3v1.78h1.766v2.64H322.3v1.78h1.766v2.67h2.695v4.63H314.6V7872h1.809v-2.91h12.161v-6.41h2.683V7872h1.809v-9.32h2.659v6.41H348.05V7872h1.809v-4.69H337.528v-4.63Zm-11.656-14.17h12.567v12.39H325.872v-12.39Zm18.813-1.75h1.808v-1.78h-1.808v1.78Zm-25.058-1.78h-1.808v1.78h1.808v-1.78Zm-4.474,0h-1.809v1.78h1.809v-1.78Zm34.011,1.78h1.808v-1.78h-1.808v1.78Zm-4.479,4.41h1.808v-1.78h-1.808v1.78Zm-25.058-1.78h-1.808v1.78h1.808v-1.78Zm29.537,1.78h1.808v-1.78h-1.808v1.78Zm-4.479,4.42h1.808v-1.78h-1.808v1.78Zm-25.058-1.78h-1.808v1.78h1.808v-1.78Zm35.824,0h-1.808v1.78h1.808v-1.78Zm-6.287,1.78h1.808v-1.78h-1.808v1.78Zm-31.345,4.42h1.808v-1.78h-1.808v1.78Zm35.824,0h1.808v-1.78h-1.808v1.78Zm-4.479,0h1.808v-1.78h-1.808v1.78Zm-4.479,0h1.808v-1.78h-1.808v1.78Zm0-17.66h1.808v-1.79h-1.808v1.79Zm-8.954,0h1.808v-1.79h-1.808v1.79Zm-4.48,0h1.809v-1.79h-1.809v1.79Zm-4.479,0h1.809v-1.79h-1.809v1.79Zm-4.474,0h1.808v-1.79H322.3v1.79Zm17.907,0h1.808v-1.79h-1.808v1.79Zm10.767-1.79h-1.808v1.79h1.808v-1.79Zm-4.479-4.41h-1.808v1.78h1.808v-1.78Zm-10.762,1.78h1.808v-1.78h-1.808v1.78Zm-4.48,0h1.809v-1.78h-1.809v1.78Zm-4.479,0h1.809v-1.78h-1.809v1.78Zm-2.666-1.78H322.3v1.78h1.808v-1.78Zm16.1,1.78h1.808v-1.78h-1.808v1.78Zm-2.666-6.2h-1.808v1.78h1.808v-1.78Zm-4.479,0h-1.809v1.78h1.809v-1.78Zm-4.479,0h-1.809v1.78h1.809v-1.78Zm13.432,0h-1.808v1.78h1.808v-1.78Zm-26.86,17.66h-1.809v1.78h1.809v-1.78Zm-4.479,0h-1.809v1.78h1.809v-1.78Zm4.479,4.42h-1.809v1.78h1.809v-1.78Zm-4.479,0h-1.809v1.78h1.809v-1.78Zm-4.479,0h-1.809v1.78H306.2v-1.78Zm7.149,6.2h1.809v-1.78h-1.809v1.78Zm-4.479,0h1.809v-1.78h-1.809v1.78Zm-4.479,0H306.2v-1.78h-1.809v1.78Z" transform="translate(-300 -7827)"/>
</svg>
