<svg xmlns="http://www.w3.org/2000/svg" width="60" height="60" viewBox="0 0 60 60">
  <defs>
    <style>
      .cls-1 {
        fill: #183a5b;
        fill-rule: evenodd;
      }
    </style>
  </defs>
  <path id="_6" data-name="6" class="cls-1" d="M330,7980.38a8.62,8.62,0,1,0,8.623,8.62A8.627,8.627,0,0,0,330,7980.38Zm0,15.3a6.68,6.68,0,1,1,6.681-6.68A6.69,6.69,0,0,1,330,7995.68Zm3.913-7.26a0.582,0.582,0,0,0-.583.58,3.324,3.324,0,0,1-1.509,2.79,0.588,0.588,0,0,0-.168.81,0.581,0.581,0,0,0,.488.26,0.541,0.541,0,0,0,.318-0.1A4.477,4.477,0,0,0,334.5,7989,0.582,0.582,0,0,0,333.913,7988.42Zm-1.485-1.91a0.577,0.577,0,0,0,.362-1.03,4.431,4.431,0,0,0-2.791-.98,4.567,4.567,0,0,0-1.425.23,0.591,0.591,0,0,0-.368.74,0.581,0.581,0,0,0,.737.37,3.424,3.424,0,0,1,1.057-.17,3.3,3.3,0,0,1,2.066.72A0.6,0.6,0,0,0,332.428,7986.51Zm-4.373,5.19a3.323,3.323,0,0,1-1.385-2.7q0-.075,0-0.15a0.589,0.589,0,0,0-.556-0.61,0.58,0.58,0,0,0-.608.56c0,0.06,0,.13,0,0.2a4.523,4.523,0,0,0,1.869,3.65,0.611,0.611,0,0,0,.34.11A0.588,0.588,0,0,0,328.055,7991.7Zm-10.686-23.35a24.867,24.867,0,0,0-3.207,2.34,0.581,0.581,0,0,0-.059.82,0.57,0.57,0,0,0,.441.21,0.607,0.607,0,0,0,.381-0.14,23.067,23.067,0,0,1,3.052-2.24,0.582,0.582,0,0,0,.193-0.8A0.575,0.575,0,0,0,317.369,7968.35Zm7,43a22.685,22.685,0,0,1-3.58-1.23,0.584,0.584,0,1,0-.467,1.07,24.9,24.9,0,0,0,3.763,1.29,0.693,0.693,0,0,0,.143.01A0.578,0.578,0,0,0,324.365,8011.35Zm-7.576-3.47a23.867,23.867,0,0,1-2.91-2.42,0.587,0.587,0,0,0-.824.01,0.577,0.577,0,0,0,.008.82,24.021,24.021,0,0,0,3.057,2.54,0.528,0.528,0,0,0,.334.11,0.587,0.587,0,0,0,.477-0.25A0.581,0.581,0,0,0,316.789,8007.88Zm-7.869-29.57a0.553,0.553,0,0,0,.276.07,0.577,0.577,0,0,0,.513-0.31,23.651,23.651,0,0,1,2.065-3.17,0.574,0.574,0,0,0-.1-0.81,0.584,0.584,0,0,0-.818.1,24.609,24.609,0,0,0-2.168,3.33A0.583,0.583,0,0,0,308.92,7978.31Zm0.154,20.34a0.583,0.583,0,0,0-1.058.49,23.945,23.945,0,0,0,1.958,3.46,0.577,0.577,0,0,0,.482.26,0.648,0.648,0,0,0,.327-0.1,0.6,0.6,0,0,0,.154-0.82A22.455,22.455,0,0,1,309.074,7998.65Zm-1.589-4.77,6.566,3.79a0.972,0.972,0,0,0,.971,0,0.962,0.962,0,0,0,.485-0.84v-15.66a0.962,0.962,0,0,0-.485-0.84,0.941,0.941,0,0,0-.971,0l-6.574,3.79c0.132-.61.289-1.22,0.47-1.82a0.581,0.581,0,0,0-1.115-.33,23.66,23.66,0,0,0-.69,2.92l-5.657,3.27a0.97,0.97,0,0,0,0,1.68l5.666,3.27c0.083,0.5.177,0.99,0.293,1.48a0.581,0.581,0,0,0,.566.45,0.317,0.317,0,0,0,.135-0.02,0.575,0.575,0,0,0,.432-0.7C307.543,7994.18,307.517,7994.03,307.485,7993.88Zm6.08-11.03v12.3L302.913,7989Zm38.439-.71a0.571,0.571,0,0,0,.556.41,0.518,0.518,0,0,0,.174-0.02,0.585,0.585,0,0,0,.383-0.73,24.025,24.025,0,0,0-1.491-3.68,0.581,0.581,0,1,0-1.04.52A23.1,23.1,0,0,1,352,7982.14Zm-9.52-13.88a23.873,23.873,0,0,0-3.563-1.77,0.582,0.582,0,0,0-.756.33,0.576,0.576,0,0,0,.327.75,22.793,22.793,0,0,1,3.39,1.69,0.647,0.647,0,0,0,.3.08A0.581,0.581,0,0,0,342.484,7968.26Zm5.642,6.51a0.575,0.575,0,0,0,.458.23,0.553,0.553,0,0,0,.36-0.13,0.574,0.574,0,0,0,.1-0.81,23.536,23.536,0,0,0-2.7-2.92,0.583,0.583,0,0,0-.786.86A23.259,23.259,0,0,1,348.126,7974.77Zm-0.913,29.55a24.05,24.05,0,0,1-2.738,2.61,0.577,0.577,0,0,0,.366,1.03,0.565,0.565,0,0,0,.366-0.13,24.1,24.1,0,0,0,2.876-2.74,0.58,0.58,0,0,0-.047-0.82A0.587,0.587,0,0,0,347.213,8004.32Zm5.08-7.46a0.575,0.575,0,0,0-.752.33,23.009,23.009,0,0,1-1.633,3.42,0.573,0.573,0,0,0,.208.79,0.529,0.529,0,0,0,.294.08,0.573,0.573,0,0,0,.5-0.29,24.107,24.107,0,0,0,1.717-3.58A0.58,0.58,0,0,0,352.293,7996.86Zm-11.65,12.58a23.193,23.193,0,0,1-3.487,1.47,0.579,0.579,0,0,0,.181,1.13,1.114,1.114,0,0,0,.181-0.02,25.438,25.438,0,0,0,3.664-1.55A0.581,0.581,0,0,0,340.643,8009.44Zm-19.316-35.42a0.977,0.977,0,0,0,.841.49h15.664a0.975,0.975,0,0,0,.841-1.46l-4.021-6.96a0.6,0.6,0,0,0,.109-0.24,0.588,0.588,0,0,0-.471-0.68,1.126,1.126,0,0,0-.182-0.02l-3.267-5.66a0.967,0.967,0,0,0-1.682,0l-3.317,5.74a0.62,0.62,0,0,0-.3-0.03,25.292,25.292,0,0,0-3.833,1.05,0.586,0.586,0,0,0-.348.75,0.574,0.574,0,0,0,.547.38,0.688,0.688,0,0,0,.2-0.03,22.457,22.457,0,0,1,3.016-.87l-3.793,6.57A0.971,0.971,0,0,0,321.327,7974.02ZM330,7961.91l6.15,10.65h-12.3Zm8.673,42.07a0.977,0.977,0,0,0-.841-0.49H322.168a0.975,0.975,0,0,0-.841,1.46l7.832,13.56a0.967,0.967,0,0,0,1.682,0l7.832-13.56A0.971,0.971,0,0,0,338.673,8003.98ZM330,8016.09l-6.15-10.66h12.3Zm29.514-27.93-13.565-7.83a0.941,0.941,0,0,0-.971,0,0.962,0.962,0,0,0-.485.84v15.66a0.962,0.962,0,0,0,.485.84,0.972,0.972,0,0,0,.971,0l7.322-4.22h0.038a0.574,0.574,0,0,0,.515-0.33l5.69-3.28A0.969,0.969,0,0,0,359.514,7988.16Zm-13.079,6.99v-12.3l10.652,6.15Z" transform="translate(-300 -7959)"/>
</svg>
