<svg xmlns="http://www.w3.org/2000/svg" width="60" height="50" viewBox="0 0 60 50">
  <defs>
    <style>
      .cls-1 {
        fill: #183a5b;
        fill-rule: evenodd;
      }
    </style>
  </defs>
  <path id="_7" data-name="7" class="cls-1" d="M354.439,8117.64H330.054a5.56,5.56,0,0,0-5.562,5.54v4.89a26.645,26.645,0,0,1-5.283-3.54,22.5,22.5,0,0,0,2.841-3.66,18.96,18.96,0,0,0,2.445-5.84h3.32a0.915,0.915,0,1,0,0-1.83h-8.9v-2.85a0.923,0.923,0,0,0-1.846,0v2.85h-8.9a0.915,0.915,0,1,0,0,1.83H322.6a19.073,19.073,0,0,1-4.743,8.24,22.31,22.31,0,0,1-3.239-3.99,0.923,0.923,0,0,0-1.269-.3,0.91,0.91,0,0,0-.3,1.26,24.126,24.126,0,0,0,3.487,4.31,25.2,25.2,0,0,1-7.82,4.64,0.918,0.918,0,0,0-.53,1.19,0.932,0.932,0,0,0,.862.59,0.786,0.786,0,0,0,.331-0.07,27.127,27.127,0,0,0,8.509-5.09,28.519,28.519,0,0,0,6.609,4.31v8.07a11.389,11.389,0,0,1-4.2,8.85l-5.307,4.33a0.916,0.916,0,0,0-.284,1.02,0.93,0.93,0,0,0,.869.61h38.87a5.554,5.554,0,0,0,5.561-5.54v-24.28A5.56,5.56,0,0,0,354.439,8117.64Zm3.715,29.82a3.712,3.712,0,0,1-3.715,3.7H318.15l3.312-2.7a13.22,13.22,0,0,0,4.877-10.27v-15.01a3.711,3.711,0,0,1,3.715-3.7h24.385a3.712,3.712,0,0,1,3.715,3.7v24.28Zm-35.508-9.96a0.92,0.92,0,0,0-.923-0.92H305.561a3.712,3.712,0,0,1-3.715-3.7V8108.6a3.713,3.713,0,0,1,3.717-3.7l36.171-.06-3.225,2.65a13.185,13.185,0,0,0-4.429,6.94,0.923,0.923,0,0,0,1.788.46,11.364,11.364,0,0,1,3.816-5.98l5.211-4.28a0.919,0.919,0,0,0,.281-1.02,0.9,0.9,0,0,0-.87-0.61l-38.745.06A5.554,5.554,0,0,0,300,8108.6v24.28a5.552,5.552,0,0,0,5.561,5.53h16.162A0.918,0.918,0,0,0,322.646,8137.5Zm20.423-11.34a0.92,0.92,0,0,0-1.71,0l-4.9,12s0,0.01,0,.01l-2.362,5.79a0.922,0.922,0,0,0,1.711.69l2.125-5.21H346.5l2.125,5.21a0.915,0.915,0,0,0,.855.57,0.851,0.851,0,0,0,.347-0.07,0.909,0.909,0,0,0,.508-1.19Zm-4.387,11.44,3.532-8.66,3.533,8.66h-7.065Z" transform="translate(-300 -8103)"/>
</svg>
