<svg xmlns="http://www.w3.org/2000/svg" width="48" height="70" viewBox="0 0 48 70">
  <defs>
    <style>
      .cls-1 {
        fill: #183a5b;
        fill-rule: evenodd;
      }
    </style>
  </defs>
  <path id="_8" data-name="8" class="cls-1" d="M332.175,8302h-16.5a0.523,0.523,0,0,1-.386-0.17,0.533,0.533,0,0,1-.148-0.39l0.71-16.8a31.76,31.76,0,0,0-1.212-10.14l-7.272-25.29a2.8,2.8,0,0,1,1.745-3.41,2.084,2.084,0,0,1,2.665,1.27l2.11,5.92-2.063-10.96a2.844,2.844,0,0,1,2.074-3.28,2.412,2.412,0,0,1,2.942,1.67l2.8,9.56-1.145-14.05a2.809,2.809,0,0,1,2.152-2.95,2.655,2.655,0,0,1,3.191,2.05l4.382,20.3a0.16,0.16,0,0,0,.159.13,0.15,0.15,0,0,0,.15-0.14l2.712-19.49a2.822,2.822,0,0,1,2.77-2.43h0.258a2.832,2.832,0,0,1,2.809,3.01c-0.406,6.53-1.288,22.16-.712,26.34,0.342,2.48,1.06,4.06,1.971,4.32,0.618,0.18,1.4-.26,2.211-1.24,1.183-1.44,3.132-4.23,4.558-6.32a4.572,4.572,0,0,1,6.027-1.44,2.578,2.578,0,0,1,1.257,1.63,2.609,2.609,0,0,1-.339,2.04c-1.766,2.72-4.924,7.65-6.231,10.06-1.714,3.15-4.726,5.98-7.64,8.71l-0.98.92c-2.838,2.69-6.378,10.21-4.5,19.93A0.541,0.541,0,0,1,332.175,8302Zm-15.944-1.08h15.3c-1.583-9.22,1.407-16.93,4.933-20.27l0.983-.92c2.851-2.68,5.8-5.45,7.432-8.45,1.323-2.43,4.5-7.39,6.272-10.13a1.508,1.508,0,0,0,.2-1.19,1.476,1.476,0,0,0-.735-0.95,3.524,3.524,0,0,0-4.631,1.1c-1.438,2.11-3.407,4.94-4.616,6.4-1.4,1.7-2.585,1.81-3.327,1.59-0.959-.27-2.214-1.4-2.737-5.2-0.589-4.27.3-20,.7-26.56a1.746,1.746,0,0,0-.469-1.31,1.709,1.709,0,0,0-1.273-.55H334.01a1.735,1.735,0,0,0-1.711,1.5l-2.713,19.49a1.211,1.211,0,0,1-1.168,1.06,1.2,1.2,0,0,1-1.244-.97l-4.381-20.3a1.581,1.581,0,0,0-.7-1.02,1.6,1.6,0,0,0-1.208-.21,1.729,1.729,0,0,0-1.324,1.82l1.571,19.25a0.532,0.532,0,0,1-.435.57,0.525,0.525,0,0,1-.61-0.37l-4.273-14.57a1.348,1.348,0,0,0-1.649-.94,1.772,1.772,0,0,0-1.291,2.04l3.326,17.67a0.54,0.54,0,0,1-.384.62,0.534,0.534,0,0,1-.644-0.34l-4.4-12.35a1.021,1.021,0,0,0-1.3-.62,1.737,1.737,0,0,0-1.075,2.11l7.273,25.28a32.859,32.859,0,0,1,1.253,10.49Zm-8.442-49.04,5.123-2.05-1.423-3.46a1.477,1.477,0,0,0-1.956-.8l-1.982.84a1.672,1.672,0,0,0-.923,2.08Zm0,0.54a0.579,0.579,0,0,1-.223-0.05,0.516,0.516,0,0,1-.283-0.32l-1.16-3.38a2.214,2.214,0,0,1,1.219-2.75l1.983-.85a2.014,2.014,0,0,1,2.658,1.1l1.422,3.45a0.55,0.55,0,0,1,0,.42,0.568,0.568,0,0,1-.3.29l-5.122,2.05A0.677,0.677,0,0,1,307.789,8252.42Zm2.324-6.44a0.972,0.972,0,0,0-.372.08l-1.982.84a1.14,1.14,0,0,0-.625,1.41l0.978,2.86,4.1-1.64L311,8246.58a0.952,0.952,0,0,0-.521-0.52A0.92,0.92,0,0,0,310.113,8245.98Zm2.2-1.52-0.74-3.51a1.76,1.76,0,0,1,1.33-2.08l1.934-.43a1.678,1.678,0,0,1,1.986,1.21l0.965,3.61Zm0,0.54a0.588,0.588,0,0,1-.29-0.08,0.572,0.572,0,0,1-.233-0.34l-0.74-3.52a2.3,2.3,0,0,1,1.736-2.71l1.934-.43a2.209,2.209,0,0,1,2.619,1.59l0.966,3.61a0.542,0.542,0,0,1-.4.66l-5.476,1.21A0.44,0.44,0,0,1,312.313,8245Zm2.891-6.06a1.083,1.083,0,0,0-.251.03l-1.934.43a1.219,1.219,0,0,0-.923,1.44l0.628,2.98,4.4-.97-0.82-3.06A1.144,1.144,0,0,0,315.2,8238.94Zm3.554,1.12-0.989-4.49a2.128,2.128,0,0,1,1.65-2.54l2.3-.45a1.977,1.977,0,0,1,2.33,1.56l0.944,4.66Zm0,0.54a0.534,0.534,0,0,1-.521-0.42l-0.989-4.49a2.644,2.644,0,0,1,.369-2.03,2.6,2.6,0,0,1,1.7-1.15l2.3-.46a2.527,2.527,0,0,1,2.958,1.98l0.944,4.67a0.53,0.53,0,0,1-.079.4,0.537,0.537,0,0,1-.34.23l-6.231,1.26A0.381,0.381,0,0,1,318.757,8240.6Zm3.342-7.52a1.349,1.349,0,0,0-.281.03l-2.3.45a1.553,1.553,0,0,0-1.012.69,1.587,1.587,0,0,0-.219,1.21l0.875,3.97,5.192-1.05-0.837-4.13A1.458,1.458,0,0,0,322.1,8233.08Zm14.967,6.77h-6.887v-4.08a3.183,3.183,0,0,1,3.174-3.19h0.94a2.773,2.773,0,0,1,2.773,2.78v4.49Zm0,0.54h-6.887a0.536,0.536,0,0,1-.534-0.54v-4.08a3.721,3.721,0,0,1,3.708-3.73h0.94a3.318,3.318,0,0,1,3.308,3.32v4.49A0.537,0.537,0,0,1,337.066,8240.39Zm-6.352-1.07h5.818v-3.96a2.247,2.247,0,0,0-2.239-2.25h-0.94a2.65,2.65,0,0,0-2.639,2.66v3.55Zm18.529,26.53-5.19-5.07,3.8-3.75a1.511,1.511,0,0,1,2.106-.03l3.017,2.84a1.541,1.541,0,0,1,.038,2.21Zm0,0.54a0.5,0.5,0,0,1-.372-0.16l-5.19-5.06a0.56,0.56,0,0,1-.163-0.39,0.535,0.535,0,0,1,.161-0.38l3.8-3.75a2.041,2.041,0,0,1,2.845-.04l3.017,2.84a2.077,2.077,0,0,1,.052,2.98l-3.772,3.8A0.555,0.555,0,0,1,349.243,8266.39Zm-4.425-5.61,4.419,4.31,3.4-3.42a0.982,0.982,0,0,0,.292-0.72,1,1,0,0,0-.316-0.72l-3.018-2.84a0.989,0.989,0,0,0-1.366.02Zm-13.551,34.53h-13.7a3.452,3.452,0,0,1-3.439-3.46v-4.33a3.452,3.452,0,0,1,3.439-3.46h13.7a3.452,3.452,0,0,1,3.439,3.46v4.33A3.452,3.452,0,0,1,331.267,8295.31Zm-13.7-10.17a2.379,2.379,0,0,0-2.37,2.38v4.33a2.379,2.379,0,0,0,2.37,2.38h13.7a2.379,2.379,0,0,0,2.37-2.38v-4.33a2.379,2.379,0,0,0-2.37-2.38h-13.7Zm7.37,10.17h-0.693a5.27,5.27,0,0,1-5.245-5.28v-0.69a5.27,5.27,0,0,1,5.245-5.28h0.693a5.27,5.27,0,0,1,5.245,5.28v0.69A5.27,5.27,0,0,1,324.936,8295.31Zm-0.693-10.17a4.19,4.19,0,0,0-4.176,4.2v0.69a4.19,4.19,0,0,0,4.176,4.2h0.693a4.19,4.19,0,0,0,4.176-4.2v-0.69a4.19,4.19,0,0,0-4.176-4.2h-0.693Zm0.556,8.16H324.38a3.4,3.4,0,0,1-3.386-3.41v-0.42a3.4,3.4,0,0,1,3.386-3.4H324.8a3.4,3.4,0,0,1,3.386,3.4v0.42A3.4,3.4,0,0,1,324.8,8293.3Zm-0.419-6.16a2.329,2.329,0,0,0-2.317,2.33v0.42a2.323,2.323,0,0,0,2.317,2.33H324.8a2.323,2.323,0,0,0,2.317-2.33v-0.42a2.329,2.329,0,0,0-2.317-2.33H324.38Zm-1.92-2a0.538,0.538,0,0,1-.5-0.36l-12.187-33.71a0.535,0.535,0,1,1,1-.37l12.187,33.72a0.533,0.533,0,0,1-.32.68A0.4,0.4,0,0,1,322.46,8285.14Zm2.129,0a0.541,0.541,0,0,1-.518-0.41l-9.928-40.66a0.534,0.534,0,1,1,1.038-.25l9.928,40.65a0.537,0.537,0,0,1-.392.65A0.577,0.577,0,0,1,324.589,8285.14Zm1.065-.14a0.532,0.532,0,0,1-.533-0.49l-3.377-45.12a0.533,0.533,0,0,1,.493-0.57,0.525,0.525,0,0,1,.573.49l3.377,45.12a0.533,0.533,0,0,1-.493.57h-0.04Zm2,0.14a0.182,0.182,0,0,1-.072-0.01,0.535,0.535,0,0,1-.458-0.6l5.972-44.75a0.534,0.534,0,1,1,1.059.14l-5.972,44.75A0.539,0.539,0,0,1,327.651,8285.14Zm2,0a0.534,0.534,0,0,1-.335-0.12,0.545,0.545,0,0,1-.081-0.76l17.032-21.25a0.535,0.535,0,1,1,.833.67l-17.032,21.26A0.538,0.538,0,0,1,329.646,8285.14Z" transform="translate(-306 -8232)"/>
</svg>
