<svg xmlns="http://www.w3.org/2000/svg" width="60" height="57" viewBox="0 0 60 57">
  <defs>
    <style>
      .cls-1 {
        fill: #183a5b;
        fill-rule: evenodd;
      }
    </style>
  </defs>
  <path id="_9" data-name="9" class="cls-1" d="M336.9,8411.78a13.745,13.745,0,0,0,1.212-.72,11.447,11.447,0,0,0,3.928-4.57l0.073-.14a8.652,8.652,0,0,0,.663-4.71c0-.01,0-0.02,0-0.03a7.572,7.572,0,0,0-9.793-5.69,5.876,5.876,0,0,0-2.665,2.1,5.711,5.711,0,0,0-2.1-1.86,7.146,7.146,0,0,0-5.822-.02,7.486,7.486,0,0,0-4.47,5.5,9.71,9.71,0,0,0-.082,1.05,8.65,8.65,0,0,0,.1,1.47,8.923,8.923,0,0,0,.672,2.24l0.041,0.08a11.413,11.413,0,0,0,3.9,4.56,12.681,12.681,0,0,0,1.234.73,12.548,12.548,0,0,1,5.553,5,1.073,1.073,0,0,0,.889.65h0.1a1.077,1.077,0,0,0,.983-0.61C332.725,8414.06,335.237,8412.69,336.9,8411.78Zm-6.562,3.3a15.014,15.014,0,0,0-5.728-4.82c-0.444-.25-0.827-0.46-1.1-0.65a9.863,9.863,0,0,1-3.342-3.93l-0.017-.03a7.083,7.083,0,0,1-.521-1.76,6.754,6.754,0,0,1-.079-1.16,8.117,8.117,0,0,1,.062-0.84,5.819,5.819,0,0,1,3.357-4.12,7.489,7.489,0,0,1,2.549-.51,4.073,4.073,0,0,1,1.9.43,4.44,4.44,0,0,1,2.057,2.42,0.846,0.846,0,0,0,.813.62H330.3a0.862,0.862,0,0,0,.817-0.61,4.457,4.457,0,0,1,2.466-2.58,5.919,5.919,0,0,1,4.142.23,5.812,5.812,0,0,1,3.354,4.11,6.776,6.776,0,0,1-.508,3.71l-0.046.09a9.889,9.889,0,0,1-3.373,3.95c-0.235.17-.622,0.38-1.07,0.63A14.969,14.969,0,0,0,330.336,8415.08Zm-3.269,6.13a2.458,2.458,0,0,1,.072-2.52,0.862,0.862,0,0,0-.25-1.19,0.851,0.851,0,0,0-1.185.25,3.294,3.294,0,0,0-.194.35,0.393,0.393,0,0,0-.072.07,3.985,3.985,0,0,1-1.819,1.47,0.875,0.875,0,0,0-.475,1.13,0.852,0.852,0,0,0,.8.54,0.888,0.888,0,0,0,.319-0.06,5.558,5.558,0,0,0,.862-0.45,4.135,4.135,0,0,0,.46,1.27l0.195,0.34a2.488,2.488,0,0,1,.323,1.23v3.08c0,3.06-2.957,5.55-6.592,5.55s-6.593-2.49-6.593-5.55a4.018,4.018,0,0,1,.027-0.42l1.385-1.23a0.86,0.86,0,0,0-1.127-1.3l-1.241,1.1c-3.306-1.34-5.418-4.15-5.418-7.27a6.746,6.746,0,0,1,.258-1.82,8.182,8.182,0,0,0,2.471.39,0.865,0.865,0,0,0,0-1.73,6.26,6.26,0,0,1-2.826-.68,10.286,10.286,0,0,1-1.36-16.27,8.55,8.55,0,0,1,5.264-1.85,8.846,8.846,0,0,1,2.513.36,4.377,4.377,0,0,0-.319,2.18,4.271,4.271,0,0,0,1.464,2.78l0.063,0.06a0.833,0.833,0,0,0,.6.25,0.848,0.848,0,0,0,.61-0.25,0.879,0.879,0,0,0-.008-1.23l-0.118-.11a2.611,2.611,0,0,1-.911-1.7,2.57,2.57,0,0,1,2.169-2.88,2.477,2.477,0,0,1,1.847.55,0.844,0.844,0,0,0,1.206-.11,0.861,0.861,0,0,0-.112-1.21,4.08,4.08,0,0,0-5.494.19,10.453,10.453,0,0,0-3.511-.61,9.967,9.967,0,0,0-3.169.52,6.621,6.621,0,0,1-.091-1.03,7.893,7.893,0,0,1,4.376-6.77,7.194,7.194,0,0,0,1.658,3.11,0.86,0.86,0,0,0,1.289-1.14,4.909,4.909,0,0,1-1.387-3.26,0.43,0.43,0,0,0-.014-0.07,0.676,0.676,0,0,0,0-.09,4.833,4.833,0,0,1-.094-0.9c0-3.06,2.957-5.55,6.593-5.55s6.592,2.49,6.592,5.55v8.25a0.857,0.857,0,1,0,1.713,0v-8.25c0-4.02-3.726-7.28-8.305-7.28s-8.306,3.26-8.306,7.28c0,0.17.009,0.35,0.025,0.53a9.726,9.726,0,0,0-5.851,8.59,8.525,8.525,0,0,0,.158,1.61,11.587,11.587,0,0,0-1.506,1.11,1.257,1.257,0,0,1-.134.1,1.374,1.374,0,0,0-.1.12,12.088,12.088,0,0,0,.321,17.87,0.776,0.776,0,0,0,.217.25,7.3,7.3,0,0,0,.889.6,8.628,8.628,0,0,0-.39,2.54c0,3.81,2.482,7.21,6.383,8.83-0.006.1-.009,0.19-0.009,0.29,0,4.01,3.726,7.28,8.306,7.28s8.305-3.27,8.305-7.28v-3.08a4.21,4.21,0,0,0-.549-2.08Zm-4.761-32.55a0.887,0.887,0,0,0,.158.02,0.87,0.87,0,0,0,.842-0.71,3.541,3.541,0,0,0-.519-2.59,3.393,3.393,0,0,0-2.175-1.47,3.3,3.3,0,0,0-2.529.55,0.865,0.865,0,0,0-.215,1.2,0.856,0.856,0,0,0,1.192.22,1.59,1.59,0,0,1,1.23-.27,1.617,1.617,0,0,1,1.069.73,1.765,1.765,0,0,1,.263,1.31A0.866,0.866,0,0,0,322.306,8388.66Zm-4.532,38.07a0.863,0.863,0,0,0,.206,1.2,3.266,3.266,0,0,0,1.914.62,3.164,3.164,0,0,0,.611-0.06,3.318,3.318,0,0,0,2.185-1.45,0.87,0.87,0,0,0-.233-1.2,0.852,0.852,0,0,0-1.188.23,1.622,1.622,0,0,1-1.075.72,1.54,1.54,0,0,1-1.227-.27A0.855,0.855,0,0,0,317.774,8426.73Zm-9.086-23.5a0.854,0.854,0,0,0-1.208.08,3.51,3.51,0,0,0,1.506,5.63,1.171,1.171,0,0,0,.259.04,0.853,0.853,0,0,0,.816-0.6,0.867,0.867,0,0,0-.557-1.09,1.731,1.731,0,0,1-1.175-1.57,1.8,1.8,0,0,1,.433-1.27A0.869,0.869,0,0,0,308.688,8403.23Zm8.542,10.57a3.351,3.351,0,0,0-3.393.05,0.866,0.866,0,0,0-.305,1.18,0.855,0.855,0,0,0,1.171.31,1.678,1.678,0,0,1,1.7-.03,1.894,1.894,0,0,1,.73,2.52,1.8,1.8,0,0,1-1.08.9,0.861,0.861,0,0,0-.582,1.07,0.851,0.851,0,0,0,.822.62,1,1,0,0,0,.24-0.03,3.5,3.5,0,0,0,2.119-1.76A3.634,3.634,0,0,0,317.23,8413.8Zm42.77-8.68a11.612,11.612,0,0,0-3.792-8.78,0.618,0.618,0,0,0-.1-0.12l-0.131-.09a10.885,10.885,0,0,0-1.509-1.12,8.365,8.365,0,0,0,.158-1.61,9.726,9.726,0,0,0-5.851-8.59c0.017-.18.025-0.36,0.025-0.53,0-4.02-3.726-7.28-8.3-7.28s-8.306,3.26-8.306,7.28v8.25a0.857,0.857,0,1,0,1.713,0v-8.25c0-3.06,2.957-5.55,6.593-5.55s6.592,2.49,6.592,5.55a4.572,4.572,0,0,1-.094.89,0.851,0.851,0,0,0,0,.1,0.43,0.43,0,0,0-.014.07,4.912,4.912,0,0,1-1.386,3.26,0.86,0.86,0,0,0,1.288,1.14,7.194,7.194,0,0,0,1.658-3.11,7.893,7.893,0,0,1,4.376,6.77,6.621,6.621,0,0,1-.091,1.03,9.961,9.961,0,0,0-3.168-.52,10.463,10.463,0,0,0-3.512.61,4.08,4.08,0,0,0-5.494-.19,0.86,0.86,0,0,0-.11,1.21,0.844,0.844,0,0,0,1.206.11,2.43,2.43,0,0,1,1.845-.55,2.569,2.569,0,0,1,2.169,2.88,2.706,2.706,0,0,1-.969,1.76l-0.063.06a0.866,0.866,0,0,0,0,1.22,0.858,0.858,0,0,0,1.211,0l0-.01a4.333,4.333,0,0,0,1.518-2.83,4.388,4.388,0,0,0-.318-2.18,8.846,8.846,0,0,1,2.513-.36,8.551,8.551,0,0,1,5.266,1.85,10.286,10.286,0,0,1-1.364,16.27,6.252,6.252,0,0,1-2.824.68,0.865,0.865,0,0,0,0,1.73,8.187,8.187,0,0,0,2.471-.39,6.784,6.784,0,0,1,.257,1.82c0,3.12-2.112,5.93-5.417,7.27l-1.241-1.1a0.861,0.861,0,0,0-1.128,1.3l1.386,1.23a4,4,0,0,1,.026.42c0,3.06-2.957,5.55-6.592,5.55s-6.593-2.49-6.593-5.55v-3.08a2.527,2.527,0,0,1,.323-1.23l0.195-.34a4.161,4.161,0,0,0,.46-1.27,5.5,5.5,0,0,0,.861.45,0.9,0.9,0,0,0,.32.06,0.852,0.852,0,0,0,.8-0.54,0.875,0.875,0,0,0-.475-1.13,3.99,3.99,0,0,1-1.819-1.47,0.39,0.39,0,0,0-.071-0.07,3.294,3.294,0,0,0-.194-0.35,0.85,0.85,0,0,0-1.184-.25,0.862,0.862,0,0,0-.251,1.19,2.46,2.46,0,0,1,.071,2.52l-0.195.35a4.21,4.21,0,0,0-.549,2.08v3.08c0,4.01,3.726,7.28,8.306,7.28s8.3-3.27,8.3-7.28c0-.1,0-0.19-0.008-0.29a9.73,9.73,0,0,0,6.382-8.83,8.577,8.577,0,0,0-.389-2.54,7.3,7.3,0,0,0,.889-0.6,0.776,0.776,0,0,0,.217-0.25A11.585,11.585,0,0,0,360,8405.12Zm-20.29-19.51a1.548,1.548,0,0,1,1.229.27,0.856,0.856,0,0,0,1.192-.22,0.865,0.865,0,0,0-.215-1.2,3.3,3.3,0,0,0-2.528-.55,3.4,3.4,0,0,0-2.176,1.47,3.545,3.545,0,0,0-.518,2.59,0.857,0.857,0,1,0,1.684-.32,1.77,1.77,0,0,1,.262-1.31A1.617,1.617,0,0,1,339.71,8385.61Zm1.323,40.91a1.544,1.544,0,0,1-1.228.27,1.618,1.618,0,0,1-1.074-.72,0.851,0.851,0,0,0-1.187-.23,0.87,0.87,0,0,0-.234,1.2,3.314,3.314,0,0,0,2.183,1.45,3.181,3.181,0,0,0,.612.06,3.267,3.267,0,0,0,1.915-.62A0.861,0.861,0,0,0,341.033,8426.52Zm9.462-19.23a0.867,0.867,0,0,0-.557,1.09,0.853,0.853,0,0,0,.816.6,1.171,1.171,0,0,0,.259-0.04,3.511,3.511,0,0,0,1.508-5.63,0.854,0.854,0,0,0-1.208-.08,0.869,0.869,0,0,0-.076,1.22,1.79,1.79,0,0,1,.434,1.26A1.736,1.736,0,0,1,350.5,8407.29Zm-6.9,8.02a1.676,1.676,0,0,1,1.7.03,0.855,0.855,0,0,0,1.171-.31,0.866,0.866,0,0,0-.305-1.18,3.349,3.349,0,0,0-3.392-.05,3.633,3.633,0,0,0-1.427,4.83,3.5,3.5,0,0,0,2.119,1.76,1,1,0,0,0,.24.03,0.863,0.863,0,0,0,.24-1.69,1.8,1.8,0,0,1-1.08-.9A1.894,1.894,0,0,1,343.593,8415.31Z" transform="translate(-300 -8377)"/>
</svg>
