<svg xmlns="http://www.w3.org/2000/svg" width="80" height="80" viewBox="0 0 80 80">
  <defs>
    <style>
      .cls-1 {
        fill: #b6dfd7;
        fill-rule: evenodd;
      }
    </style>
  </defs>
  <path class="cls-1" d="M438,11707a9,9,0,1,0-9.012-9A8.992,8.992,0,0,0,438,11707Zm0-15.4a6.4,6.4,0,1,1,0,12.8A6.4,6.4,0,1,1,438,11691.6Zm-9.338,23.3a29.659,29.659,0,0,0,3.1,1.4H431.7a35.474,35.474,0,0,0,16.54,12l0.8-2.5a33.163,33.163,0,0,1-13.21-8.6,15.751,15.751,0,0,0,2.179.1h1.185a34.927,34.927,0,0,0,17.259,4.8,35.293,35.293,0,0,0,21.555-7.7l-1.711-1.9c-0.149.1-14.428,12.5-32.952,4a17.457,17.457,0,0,0,3.162-1.2l-0.012.1a35.667,35.667,0,0,0,4.618.3,34.773,34.773,0,0,0,15.53-3.5l-1.166-2.3a32.364,32.364,0,0,1-15.466,3.2,16.534,16.534,0,0,0,2.476-2.4l0.026,0.1c23.784-6.6,25.387-29.2,25.4-29.5l-2.57-.1c-0.011.2-1.362,19-20.445,26.1a15.92,15.92,0,0,0,1.365-3.1l0.049,0.1a35.315,35.315,0,0,0,11.956-16.5l-2.448-.8a32.808,32.808,0,0,1-8.634,13.2,19.561,19.561,0,0,0,.134-2.2c0-.4-0.036-0.8-0.062-1.2h0.078c12.147-21.5-2.736-38.6-2.888-38.8l-1.925,1.7c0.132,0.2,12.5,14.4,4.031,33a19.167,19.167,0,0,0-1.231-3.2H455.4a35.439,35.439,0,0,0-3.241-20.1l-2.3,1.1a32.843,32.843,0,0,1,3.234,15.5,22.732,22.732,0,0,0-2.367-2.5h0.093c-6.606-23.8-29.259-25.4-29.486-25.4l-0.151,2.6c0.2,0,19.039,1.3,26.148,20.4a29.583,29.583,0,0,0-3.1-1.4H444.3a35.456,35.456,0,0,0-16.539-12l-0.8,2.5a33.143,33.143,0,0,1,13.21,8.6,15.722,15.722,0,0,0-2.177-.1h-1.186c-21.492-12.2-38.644,2.7-38.814,2.9l1.711,1.9c0.149-.2,14.429-12.5,32.951-4a17.438,17.438,0,0,0-3.16,1.2l0.011-.1a35.918,35.918,0,0,0-20.15,3.2l1.166,2.3a32.373,32.373,0,0,1,15.467-3.2,16.493,16.493,0,0,0-2.477,2.4l-0.026-.1c-23.784,6.6-25.387,29.2-25.4,29.5l2.57,0.1c0.011-.2,1.362-19,20.445-26.1a15.92,15.92,0,0,0-1.365,3.1l-0.049-.1a35.807,35.807,0,0,0-11.956,16.5l2.447,0.8a32.826,32.826,0,0,1,8.635-13.2,20.039,20.039,0,0,0-.131,2.2c0,0.4.036,0.8,0.062,1.2h-0.079c-12.147,21.5,2.737,38.6,2.889,38.8l1.926-1.7a31.144,31.144,0,0,1-4.034-33,19.171,19.171,0,0,0,1.232,3.2H420.6a35.438,35.438,0,0,0,3.24,20.1l2.3-1.1a32.831,32.831,0,0,1-3.234-15.5,22.628,22.628,0,0,0,2.366,2.5h-0.093c6.607,23.8,29.26,25.4,29.488,25.4l0.151-2.6C454.612,11735.3,435.773,11734,428.662,11714.9Zm-7.4-16.9A16.737,16.737,0,1,1,438,11714.7,16.743,16.743,0,0,1,421.263,11698Zm-3.862-32.2h2.575v2.6H417.4v-2.6Zm-5.149-5.1h2.575v2.5h-2.575v-2.5Zm-10.3,9h2.575v2.5h-2.575v-2.5Zm0,19.3h2.575v2.6h-2.575v-2.6Zm5.15,27h2.575v2.6H407.1v-2.6Zm-5.15,5.2h2.575v2.6h-2.575v-2.6Zm21.886,10.3h2.575v2.6h-2.575v-2.6Zm9.012,3.8h2.575v2.6H432.85v-2.6Zm21.886-7.7h2.575v2.6h-2.575v-2.6Zm7.724-2.6h2.575v2.6H462.46v-2.6Zm11.587,9.1h2.575v2.5h-2.575v-2.5Zm-1.287-29.7h2.574v2.6H472.76v-2.6Zm-5.15-29.6h2.575v2.6H467.61v-2.6Zm2.575-7.7h2.575v2.6h-2.575v-2.6Zm-24.461-5.2H448.3v2.6h-2.575v-2.6Zm-5.149-3.8h2.574v2.6h-2.574v-2.6Z" transform="translate(-398 -11658)"/>
</svg>
