<svg xmlns="http://www.w3.org/2000/svg" width="66" height="80" viewBox="0 0 66 80">
  <defs>
    <style>
      .cls-1 {
        fill: #b6dfd7;
        fill-rule: evenodd;
      }
    </style>
  </defs>
  <path class="cls-1" d="M839.267,11710a6.657,6.657,0,0,0-5.4,2.8q-2.889-1.65-5.766-3.3a15.342,15.342,0,0,0,.166-13.5l8.039-4.6a4.427,4.427,0,0,0,2.964,1.2,4.25,4.25,0,1,0-4.213-4.2,4.93,4.93,0,0,0,.083.8l-8.121,4.7a14.64,14.64,0,0,0-11.394-6.4v-8.4a10.62,10.62,0,1,0-2.457-.1v8.5a15.218,15.218,0,0,0-10.781,6.4l-8.8-5.1h-0.08a7.627,7.627,0,0,0,.841-3.4,7.174,7.174,0,1,0-7.174,7.2,7.059,7.059,0,0,0,4.867-1.9,0.478,0.478,0,0,0,.321.2l8.776,5.1a15.329,15.329,0,0,0,.167,13.5c-2.861,1.6-5.49,3.1-7.985,4.5a4.128,4.128,0,0,0-3.185-1.4,4.2,4.2,0,1,0,4.213,4.2,4.66,4.66,0,0,0-.031-0.5c2.583-1.5,5.308-3,8.282-4.7a15.4,15.4,0,0,0,10.567,6.1v6.5a6.952,6.952,0,1,0,2.457-.1v-6.4a15.049,15.049,0,0,0,11.182-6.1c1.989,1.1,3.982,2.3,5.979,3.4a7.061,7.061,0,0,0-.249,1.8A6.733,6.733,0,1,0,839.267,11710Zm0-23.4a1.776,1.776,0,0,1,1.756,1.8,1.757,1.757,0,0,1-3.512,0A1.776,1.776,0,0,1,839.267,11686.6Zm-52.094,3.5a4.708,4.708,0,0,1-4.716-4.7,4.717,4.717,0,1,1,9.433,0A4.708,4.708,0,0,1,787.173,11690.1Zm2.961,28.5a1.8,1.8,0,1,1,1.756-1.8A1.776,1.776,0,0,1,790.134,11718.6Zm16.525-50a8.042,8.042,0,1,1,8.041,8.1A8.058,8.058,0,0,1,806.659,11668.6Zm12.508,62.4a4.467,4.467,0,1,1-4.467-4.5A4.476,4.476,0,0,1,819.167,11731Zm-4.467-15.7a12.7,12.7,0,1,1,12.591-12.7A12.662,12.662,0,0,1,814.7,11715.3Zm24.567,5.8a4.3,4.3,0,1,1,4.276-4.3A4.274,4.274,0,0,1,839.267,11721.1Z" transform="translate(-780 -11658)"/>
</svg>
