<svg xmlns="http://www.w3.org/2000/svg" width="83" height="80" viewBox="0 0 83 80">
  <defs>
    <style>
      .cls-1 {
        fill: #b6dfd7;
        fill-rule: evenodd;
      }
    </style>
  </defs>
  <path class="cls-1" d="M1227.96,11685.9l-9.04-5.1v-9.5a3.912,3.912,0,0,0-1.98-3.4l-15.9-9.3a3.81,3.81,0,0,0-2.04-.6,4.744,4.744,0,0,0-2.02.5l-7.12,4.1v70.8l7.12,4.1a4.744,4.744,0,0,0,2.02.5,3.81,3.81,0,0,0,2.04-.6l15.9-9.3a3.912,3.912,0,0,0,1.98-3.4v-9.5l9.04-5.1a4.066,4.066,0,0,0,2.04-3.5v-17.2A4.066,4.066,0,0,0,1227.96,11685.9Zm-1.27,22-8.65,4.8-2.29-2.3a3.411,3.411,0,0,0-.73-3.9,3.621,3.621,0,0,0-5.1,0,3.5,3.5,0,0,0,0,5,3.755,3.755,0,0,0,4.01.8l2.41,2.4v10a1.319,1.319,0,0,1-.71,1.2l-15.9,9.3a0.988,0.988,0,0,1-.73.2,0.942,0.942,0,0,1-.72-0.2l-5.84-3.3v-32.6h1.93a3.67,3.67,0,0,0,3.36,2.3,3.6,3.6,0,0,0,0-7.2,3.67,3.67,0,0,0-3.36,2.3h-1.93v-32.6l5.84-3.3a0.942,0.942,0,0,1,.72-0.2,0.988,0.988,0,0,1,.73.2l15.9,9.3a1.319,1.319,0,0,1,.71,1.2v10.1l-2.41,2.4a3.575,3.575,0,0,0-4.01.8,3.5,3.5,0,0,0,0,5,3.621,3.621,0,0,0,5.1,0,3.566,3.566,0,0,0,.73-4l2.34-2.3,8.6,4.8a1.6,1.6,0,0,1,.73,1.3v7.3h-2.85a3.66,3.66,0,0,0-3.36-2.3,3.6,3.6,0,1,0,0,7.2,3.66,3.66,0,0,0,3.36-2.3h2.85v7.3A1.6,1.6,0,0,1,1226.69,11707.9Zm-21.46-17.9-1.91-1.5a2.654,2.654,0,0,1-1.09-2.1v-8.5a5.33,5.33,0,0,0,1.18-.8,3.606,3.606,0,1,0-5.1,0,3.767,3.767,0,0,0,1.34.8v8.5a5.354,5.354,0,0,0,2.11,4.2l1.91,1.4a2.7,2.7,0,0,1,1.09,2.2v7.6a2.7,2.7,0,0,1-1.09,2.2l-1.91,1.4a5.354,5.354,0,0,0-2.11,4.2v8.5a3.767,3.767,0,0,0-1.34.8,3.606,3.606,0,1,0,5.1,0,5.33,5.33,0,0,0-1.18-.8v-8.5a2.654,2.654,0,0,1,1.09-2.1l1.91-1.5a5.21,5.21,0,0,0,2.11-4.2v-7.6A5.21,5.21,0,0,0,1205.23,11690Zm-27.23-32a3.81,3.81,0,0,0-2.04.6l-15.9,9.3a3.912,3.912,0,0,0-1.98,3.4v9.5l-9.04,5.1a4.066,4.066,0,0,0-2.04,3.5v17.2a4.066,4.066,0,0,0,2.04,3.5l9.04,5.1v9.5a3.912,3.912,0,0,0,1.98,3.4l15.9,9.3a3.81,3.81,0,0,0,2.04.6,4.665,4.665,0,0,0,2.01-.5l7.13-4.1v-70.8l-7.13-4.1A4.665,4.665,0,0,0,1178,11658Zm6.56,38.7h-1.93a3.67,3.67,0,0,0-3.36-2.3,3.6,3.6,0,1,0,0,7.2,3.67,3.67,0,0,0,3.36-2.3h1.93v32.6l-5.84,3.3a0.964,0.964,0,0,1-.72.2,0.977,0.977,0,0,1-.73-0.2l-15.91-9.3a1.328,1.328,0,0,1-.7-1.2v-10l2.41-2.4a3.755,3.755,0,0,0,4.01-.8,3.5,3.5,0,0,0,0-5,3.621,3.621,0,0,0-5.1,0,3.43,3.43,0,0,0-.74,3.9l-2.28,2.3-8.65-4.8a1.6,1.6,0,0,1-.73-1.3v-7.3h2.85a3.649,3.649,0,0,0,3.36,2.3,3.6,3.6,0,0,0,0-7.2,3.649,3.649,0,0,0-3.36,2.3h-2.85v-7.3a1.6,1.6,0,0,1,.73-1.3l8.6-4.8,2.33,2.3a3.6,3.6,0,0,0,5.84,4,3.5,3.5,0,0,0,0-5,3.575,3.575,0,0,0-4.01-.8l-2.41-2.4v-10.1a1.328,1.328,0,0,1,.7-1.2l15.91-9.3a0.977,0.977,0,0,1,.73-0.2,0.964,0.964,0,0,1,.72.2l5.84,3.3v32.6Zm-10.97-24.7a3.6,3.6,0,0,0,0,5.1,5.33,5.33,0,0,0,1.18.8v8.5a2.654,2.654,0,0,1-1.09,2.1l-1.91,1.5a5.21,5.21,0,0,0-2.11,4.2v7.6a5.21,5.21,0,0,0,2.11,4.2l1.91,1.5a2.654,2.654,0,0,1,1.09,2.1v8.5a5.33,5.33,0,0,0-1.18.8,3.6,3.6,0,1,0,5.09,0,3.682,3.682,0,0,0-1.34-.8v-8.5a5.324,5.324,0,0,0-2.11-4.2l-1.91-1.4a2.719,2.719,0,0,1-1.08-2.2v-7.6a2.719,2.719,0,0,1,1.08-2.2l1.91-1.4a5.324,5.324,0,0,0,2.11-4.2v-8.5a3.682,3.682,0,0,0,1.34-.8A3.6,3.6,0,1,0,1173.59,11672Z" transform="translate(-1147 -11658)"/>
</svg>
