<svg xmlns="http://www.w3.org/2000/svg" width="89" height="80" viewBox="0 0 89 80">
  <defs>
    <style>
      .cls-1 {
        fill: #b6dfd7;
        fill-rule: evenodd;
      }
    </style>
  </defs>
  <path class="cls-1" d="M1607.91,11728.4c0.01-.1.03-0.1,0.04-0.1a0.34,0.34,0,0,0,.01-0.1,1.112,1.112,0,0,0-.01-0.6,0.976,0.976,0,0,0-.13-0.3l-34.43-59.9a18.843,18.843,0,0,0-16.28-9.4,1.206,1.206,0,0,0-1.15.7l-34.45,59.8a19.063,19.063,0,0,0-.06,18.8h0c0.02,0.1.05,0.1,0.07,0.1a0.337,0.337,0,0,0,.14.2c0.03,0,.07.1,0.1,0.1,0.06,0,.11.1,0.17,0.1s0.1,0.1.15,0.1h0.17a0.174,0.174,0,0,0,.18.1h69.14a18.807,18.807,0,0,0,16.25-9.4h0A1.76,1.76,0,0,0,1607.91,11728.4Zm-36.8-59.6,33.29,57.8h-64.37l3.53-6.1h48.02a1.366,1.366,0,0,0,1.14-.7,1.264,1.264,0,0,0,0-1.3l-33.22-57.7A16.53,16.53,0,0,1,1571.11,11668.8Zm8.12,49.1h-34.16l17.1-29.7Zm-55.43,2,33.31-57.9,32.18,55.9h-7.02l-23.88-41.6-0.1-.2a1.359,1.359,0,0,0-.48-0.5h-0.06a0.292,0.292,0,0,0-.26-0.1h-0.16a0.174,0.174,0,0,0-.18-0.1h0a1.383,1.383,0,0,0-1.15.7l-33.29,57.7A16.214,16.214,0,0,1,1523.8,11719.9Zm67.77,15.4h-66.69l16.24-28.1,16.02-27.8,3.49,6.1-24.03,41.8a0.3,0.3,0,0,0-.09.2c-0.01,0-.03,0-0.04.1a1.38,1.38,0,0,0-.03.2l-0.02.1a1.544,1.544,0,0,0,.04.3l0.01,0.1a0.56,0.56,0,0,1,.1.2c0.01,0,.02.1,0.03,0.1h0c0.04,0.1.1,0.1,0.15,0.2,0.02,0,.04,0,0.06.1a0.168,0.168,0,0,1,.17.1,0.943,0.943,0,0,0,.1.1h0.11a1.041,1.041,0,0,0,.55.1h66.45A15.924,15.924,0,0,1,1591.57,11735.3Z" transform="translate(-1519 -11658)"/>
</svg>
