<?xml version="1.0" encoding="utf-8"?>
<!-- Generator: Adobe Illustrator 16.0.4, SVG Export Plug-In . SVG Version: 6.00 Build 0)  -->
<!DOCTYPE svg PUBLIC "-//W3C//DTD SVG 1.1//EN" "http://www.w3.org/Graphics/SVG/1.1/DTD/svg11.dtd">
<svg version="1.1" id="Layer_1" xmlns="http://www.w3.org/2000/svg" xmlns:xlink="http://www.w3.org/1999/xlink" x="0px" y="0px"
	 width="49px" height="40px" viewBox="0 0 49 40" enable-background="new 0 0 49 40" xml:space="preserve">
<g>
	<path fill="#063A5E" d="M10.401,19.946c0-8.258,5.219-15.3,12.578-18.143l0-1.093c-1.037-0.167-2.098-0.264-3.183-0.264
		C8.862,0.446,0,9.176,0,19.946c0,10.769,8.862,19.5,19.795,19.5c1.093,0,2.161-0.098,3.205-0.268l0-1.08
		C15.629,35.26,10.401,28.211,10.401,19.946z"/>
	<path fill="#063A5E" d="M29.39,0.738c-1.066,0-2.109,0.097-3.13,0.261l0.001,1.088c7.245,2.824,12.382,9.812,12.382,18.004
		c0,8.186-5.127,15.168-12.361,17.996v1.101c1.014,0.163,2.049,0.258,3.108,0.258c10.769,0,19.499-8.665,19.499-19.354
		C48.889,9.403,40.158,0.738,29.39,0.738z"/>
</g>
</svg>
