<?xml version="1.0" encoding="utf-8"?>
<!-- Generator: Adobe Illustrator 16.0.4, SVG Export Plug-In . SVG Version: 6.00 Build 0)  -->
<!DOCTYPE svg PUBLIC "-//W3C//DTD SVG 1.1//EN" "http://www.w3.org/Graphics/SVG/1.1/DTD/svg11.dtd">
<svg version="1.1" id="Layer_1" xmlns="http://www.w3.org/2000/svg" xmlns:xlink="http://www.w3.org/1999/xlink" x="0px" y="0px"
	 width="48px" height="49px" viewBox="0 0 48 49" enable-background="new 0 0 48 49" xml:space="preserve">
<path fill="#063A5E" d="M23.95,30.156c-3.061,0-5.548-2.495-5.548-5.568c0-3.073,2.487-5.569,5.548-5.569
	c3.062,0,5.547,2.496,5.547,5.569C29.497,27.661,27.012,30.156,23.95,30.156 M46.58,21.396c-0.812-0.815-1.928-1.307-3.18-1.307
	h-5.531c-5.209,0-9.438-4.244-9.438-9.474V5.063c0-2.496-1.996-4.516-4.482-4.516c-1.251,0-2.368,0.509-3.18,1.324
	s-1.302,1.935-1.302,3.192v5.552c0,5.229-4.229,9.474-9.438,9.474h-5.53C2.013,20.089,0,22.092,0,24.588
	c0,1.256,0.507,2.377,1.319,3.191s1.928,1.309,3.18,1.309h5.531c5.209,0,9.438,4.244,9.438,9.473v5.554
	c0,2.495,1.996,4.516,4.482,4.516c1.251,0,2.368-0.51,3.179-1.323c0.812-0.814,1.303-1.937,1.303-3.191v-5.553
	c0-5.229,4.229-9.474,9.438-9.474h5.53c2.486,0,4.5-2.004,4.5-4.5C47.9,23.332,47.393,22.211,46.58,21.396 M36.4,13.446
	c-0.615,0-1.229-0.234-1.697-0.703c-0.938-0.938-0.938-2.456,0-3.394l3.199-3.199c0.938-0.938,2.457-0.938,3.395,0
	c0.938,0.937,0.938,2.456,0,3.393l-3.201,3.2C37.628,13.211,37.014,13.446,36.4,13.446 M11.6,13.446
	c-0.614,0-1.228-0.234-1.697-0.703l-3.2-3.2c-0.938-0.937-0.938-2.456,0-3.393c0.938-0.938,2.456-0.938,3.394,0l3.2,3.199
	c0.938,0.938,0.938,2.457,0,3.394C12.828,13.211,12.214,13.446,11.6,13.446 M8.4,44.445c-0.614,0-1.228-0.234-1.697-0.703
	c-0.938-0.938-0.938-2.455,0-3.395l3.2-3.199c0.938-0.938,2.456-0.938,3.394,0s0.938,2.457,0,3.395l-3.2,3.199
	C9.628,44.211,9.014,44.445,8.4,44.445 M39.6,44.445c-0.613,0-1.228-0.234-1.695-0.703l-3.2-3.199c-0.938-0.938-0.938-2.457,0-3.395
	s2.457-0.938,3.394,0l3.2,3.199c0.938,0.938,0.938,2.457,0,3.395C40.828,44.211,40.215,44.445,39.6,44.445"/>
</svg>
