<?xml version="1.0" encoding="utf-8"?>
<!-- Generator: Adobe Illustrator 22.0.1, SVG Export Plug-In . SVG Version: 6.00 Build 0)  -->
<svg version="1.1" id="Layer_1" xmlns="http://www.w3.org/2000/svg" xmlns:xlink="http://www.w3.org/1999/xlink" x="0px" y="0px"
	 viewBox="0 0 1140 556" style="enable-background:new 0 0 1140 556;" xml:space="preserve">
<style type="text/css">
	.st0{fill:#063A5E;}
</style>
<title>HG_Main Logo_Blue</title>
<g>
	<path class="st0" d="M18.6,261.1l16.8,277.2l5.1-0.6l-2-72.8c-0.8-12.2,6-23.5,16.5-27.4c7.3-2.7,14.7-4.9,22.3-6.5
		c8.7,23.1,20.4,45,34.7,65.1c14.3-20.1,26-42,34.7-65.1c7.6,1.6,15.1,3.8,22.3,6.5c10.5,3.9,17.3,15.2,16.6,27.4l-1.9,72.8l5.1,0.6
		l16.9-277.2l-5.1-0.5l-9.2,112.3c-0.7,11.1-7.5,20.5-17.1,24c-5.9,2.1-11.8,3.9-17.9,5.4c10.8-38,16.9-83.6,16.9-139.5
		c0-111.8-24.7-193.9-61.2-245c-36.5,51.1-61.2,133.2-61.2,245c0,55.9,6.2,101.5,16.9,139.5c-6.1-1.5-12-3.2-17.9-5.4
		c-9.6-3.4-16.4-12.9-17.1-24l-9.3-112.3L18.6,261.1z"/>
	<g>
		<g>
			<path class="st0" d="M446.7,70.3v128.9h-20.6v-39.5h-55.5v39.5h-20.6V70.1h20.6v72.3h55.5V70.3H446.7z"/>
			<path class="st0" d="M628.9,70.3l-39,63.8l-5.9,9l0.4,14v42h-21.2v-56.1l-6.9-11.1l-38.1-61.8h21.8l26.4,42.4l7.2,12l7.2-11.8
				l26.2-42.6L628.9,70.3z"/>
			<path class="st0" d="M744.8,167.1h-20.1v32.1h-19.4V70.1h45.8c23.2,1.1,41.8,22.3,41.8,48.3c0,19.9-10.7,37.2-26.2,44.6
				C766.7,163,759.6,167.1,744.8,167.1z M724.7,149.7h24.5c14.2-0.7,26-14.2,26-31.3c0-15.9-10.7-29.1-24.2-31h-26.4L724.7,149.7z"
				/>
			<path class="st0" d="M891.1,87.4v54.9h50.5v17.3h-50.5v22.1h59v17.3h-78V70.1h78v17.3H891.1z"/>
			<path class="st0" d="M1084.5,163.4l25.8,35.8h-24.7l-22.9-31.9h-20.1v31.9h-19.4V70.1h45.7v0.4c23.2,0.7,41.8,22.3,41.8,48.3
				C1110.9,138.7,1100.2,155.6,1084.5,163.4z M1042.7,150.1h24.3c14.4-0.9,26.2-14.6,26.2-31.3c0-16.2-10.7-29.5-24.2-31.2h-26.4
				L1042.7,150.1z"/>
			<path class="st0" d="M475.3,327.9c0,37.4-26.4,67.3-65.3,67.3c-36.7,0-66.6-29.9-66.6-67.3c0-37.1,29.9-67.7,66.6-67.7
				c28.2,0,43.3,11.8,55.3,23.6l-16,12.5c-8.1-7.6-20.3-16-39.3-16c-25.3,0-45.6,21.2-45.6,47.6c0,26.5,20.3,47.9,45.6,47.9
				c19.9,0,37.2-12,42.8-32.1h-32.3v-18.1h54.8L475.3,327.9z"/>
			<path class="st0" d="M583.5,393.1h-20.1V264.1h20.1L583.5,393.1z"/>
			<path class="st0" d="M743.6,372.3h-55.7c-4.4,11.4-8.1,20.6-8.1,20.6h-20.7l56.6-132l57,132H752
				C752,392.9,748.3,383.7,743.6,372.3z M737.1,355.6c0,0-3.3-7.2-4.6-10.5c-2.8-7.7-5.5-14-6.8-17.7c-6.3-15.7-9.6-26.2-9.6-26.2
				s-4.1,10.7-10.3,26.2c-1.5,4.1-3.9,10.5-6.8,17.7c-1.3,3.3-4.4,10.5-4.4,10.5s2.6-0.4,21.6-0.4
				C734.9,355.1,737.1,355.5,737.1,355.6L737.1,355.6z"/>
			<path class="st0" d="M842.6,261.3l71.2,70.3l15.5,16l-0.2-19.7v-63.6h21.2v130.5l-74.7-72.3l-12.7-13.6l0.2,16v67.5h-20.5
				L842.6,261.3z"/>
			<path class="st0" d="M1121.4,264.4v18.4h-38.7v110.1h-21.8V282.9h-37.6v-18.4H1121.4z"/>
		</g>
		<g>
			<path class="st0" d="M351.7,485.3h-5.6v-36h5.6V485.3z"/>
			<path class="st0" d="M414.2,448.5l19.9,19.6l4.3,4.5l-0.1-5.5v-17.8h5.9v36.5l-20.9-20.2l-3.6-3.8l0.1,4.5v18.8h-5.7V448.5z"/>
			<path class="st0" d="M534.1,467.4c0,9.8-7.6,17.9-17.4,17.9h-3.6h-5.4v-35.9h5.4h3.6C526.5,449.4,534.1,457.5,534.1,467.4z
				 M528.9,467.4c0-7.1-5.4-13.2-12.1-13.2h-3.7v26.3h3.7C523.5,480.5,528.9,474.4,528.9,467.4z"/>
			<path class="st0" d="M620.1,449.3h0.7V473c0,7.1-5.8,12.9-12.8,12.9c-7.1,0-12.9-5.8-12.9-12.9v-23.6h0.7h4h0.4v23.1
				c0,4.4,3.5,8.4,7.8,8.4c4.3,0,7.8-4,7.8-8.4v-23.1h0.4H620.1z"/>
			<path class="st0" d="M707.8,476.1c-0.3,5.8-6.5,10.2-13.9,9.8c-6.1-0.4-10.9-3.8-12.4-8.1l6.3-1.7c1,2.6,3,4,6.4,4.1
				c3.8,0.2,7.1-1.4,7.2-4.5c0.3-3-2.7-5.4-6.6-5.6c-0.2,0-0.3,0-0.4-0.1c-7.2-0.6-12-5.7-11.7-11.3c0.4-5.9,6-10.4,13.3-9.9
				c5,0.3,9.2,2.7,11.3,5.9l-5.6,2.3c-1.1-1.8-3.4-2.7-6-2.9c-3.7-0.3-7.3,1.8-7.4,4.8c-0.2,3,3,5.6,6.8,5.8
				C702.4,465.2,708.1,470.3,707.8,476.1z"/>
			<path class="st0" d="M794,449.4v5.2h-10.8v30.7h-6.1v-30.7h-10.5v-5.2H794z"/>
			<path class="st0" d="M871.6,475.4l7.2,10h-6.9l-6.4-8.9h-5.6v8.9h-5.4v-36h4.6h0.8h7.4v0.1c6.5,0.2,11.7,6.2,11.7,13.5
				C879,468.5,876,473.2,871.6,475.4z M859.9,471.6h6.8c4-0.3,7.3-4.1,7.3-8.8c0-4.5-3-8.2-6.7-8.7h-7.4V471.6z"/>
			<path class="st0" d="M946.7,485.3h-5.6v-36h5.6V485.3z"/>
			<path class="st0" d="M1014.9,454.1v15.3h14.1v4.8h-14.1v6.2h16.5v4.8h-21.8v-36h21.8v4.8H1014.9z"/>
			<path class="st0" d="M1118.6,476.1c-0.3,5.8-6.5,10.2-13.9,9.8c-6.1-0.4-10.9-3.8-12.4-8.1l6.3-1.7c1,2.6,3,4,6.4,4.1
				c3.8,0.2,7.1-1.4,7.2-4.5c0.3-3-2.7-5.4-6.6-5.6c-0.2,0-0.3,0-0.4-0.1c-7.2-0.6-12-5.7-11.7-11.3c0.4-5.9,6-10.4,13.3-9.9
				c5,0.3,9.2,2.7,11.3,5.9l-5.6,2.3c-1.1-1.8-3.4-2.7-6-2.9c-3.7-0.3-7.3,1.8-7.4,4.8c-0.2,3,3,5.6,6.8,5.8
				C1113.3,465.2,1119,470.3,1118.6,476.1z"/>
		</g>
	</g>
</g>
</svg>
